<?xml version="1.0" standalone="no"?>
<!DOCTYPE svg PUBLIC "-//W3C//DTD SVG 1.1//EN" "http://www.w3.org/Graphics/SVG/1.1/DTD/svg11.dtd" >
<svg xmlns="http://www.w3.org/2000/svg">
<metadata></metadata>
<defs>
<font id="amblebold_italic" horiz-adv-x="1151" >
<font-face units-per-em="2048" ascent="1548" descent="-500" />
<missing-glyph horiz-adv-x="472" />
<glyph unicode="&#xfb01;" horiz-adv-x="1305" d="M102 1000h135l5 33q16 108 61 183.5t115 123t162.5 69t202.5 21.5q34 0 69 -2.5t69 -6.5t64.5 -9.5t54.5 -11.5l-29 -204q-48 5 -117.5 9.5t-141.5 4.5q-101 0 -154.5 -40t-67.5 -137l-5 -33h259l-27 -182h-258l-119 -818h-288l119 818h-143zM867 1000h287l-145 -1000 h-287z" />
<glyph unicode="&#xfb02;" horiz-adv-x="1336" d="M1294 1400l-203 -1400h-286l174 1199q-48 4 -107.5 7.5t-119.5 3.5q-101 0 -154.5 -40t-67.5 -137l-5 -33h259l-27 -182h-258l-119 -818h-288l119 818h-143l34 182h135l5 33q16 108 61 183.5t115 123t162.5 69t202.5 21.5q34 0 69 -2.5t69 -6.5t64.5 -9.5t54.5 -11.5h254 z" />
<glyph horiz-adv-x="2048" />
<glyph horiz-adv-x="2048" />
<glyph unicode="&#xd;" horiz-adv-x="463" />
<glyph unicode=" "  horiz-adv-x="472" />
<glyph unicode="&#x09;" horiz-adv-x="472" />
<glyph unicode="&#xa0;" horiz-adv-x="472" />
<glyph unicode="!" horiz-adv-x="596" d="M267 1376h286l-160 -938h-238zM109 216h264l-31 -216h-264z" />
<glyph unicode="&#x22;" horiz-adv-x="734" d="M165 1360h259l-123 -474l-187 10zM500 1360h256l-121 -474l-187 10z" />
<glyph unicode="#" horiz-adv-x="1396" d="M706 344h-191l-92 -344h-250l92 344h-207l30 210h233l62 234h-210l31 210h236l96 362h250l-97 -362h191l97 362h251l-96 -362h200l-30 -210h-227l-62 -234h207l-30 -210h-234l-92 -344h-250zM570 554h191l63 234h-191z" />
<glyph unicode="$" d="M404 -12q-89 10 -173 33t-146 57l94 216q92 -32 177 -53t179 -21q89 0 144.5 39.5t63.5 111.5q4 37 -9.5 66t-41.5 52.5t-69.5 43t-93.5 37.5q-80 28 -144 63.5t-109 79.5t-69.5 99t-24.5 124v22t2 22q8 76 37.5 139.5t77.5 112.5t113 82.5t144 50.5l25 231h262l-25 -225 q44 -7 85 -17.5t77.5 -23t67 -26t53.5 -26.5l-79 -217q-46 17 -87 31.5t-81 25t-80 16.5t-84 6q-94 0 -146.5 -42t-59.5 -108q-8 -67 35 -112.5t154 -82.5q97 -33 167 -70t115 -81t66.5 -97t21.5 -118q0 -25 -3 -52q-8 -76 -38 -139.5t-78.5 -112t-113.5 -82t-144 -49.5 l-28 -254h-261z" />
<glyph unicode="%" horiz-adv-x="1542" d="M155 1076q11 73 43 130t79.5 95.5t107.5 58.5t127 20q60 0 110.5 -17t86.5 -49.5t56.5 -79t20.5 -105.5q0 -13 -1 -26t-3 -27q-11 -74 -42.5 -131t-79 -95.5t-107.5 -58t-129 -19.5q-59 0 -109 17t-86.5 49t-57 78.5t-20.5 106.5q0 13 1 26t3 27zM351 1076q-3 -20 -3 -37 q0 -57 26.5 -87t71.5 -30q51 0 90.5 40.5t50.5 113.5q3 21 3 38q0 57 -27.5 85.5t-72.5 28.5q-50 0 -89 -39.5t-50 -112.5zM785 286q10 73 41.5 130t79 95.5t107.5 58.5t128 20q60 0 110.5 -17t86.5 -49.5t56.5 -79t20.5 -106.5q0 -13 -1 -25.5t-3 -26.5q-11 -74 -42.5 -131 t-79 -95.5t-107.5 -58t-129 -19.5q-59 0 -109 16.5t-86 48.5t-56.5 78.5t-20.5 106.5q0 13 1 26.5t3 27.5zM980 286q-3 -21 -3 -39q0 -56 26.5 -85t71.5 -29q52 0 90.5 40.5t49.5 112.5q3 21 3 38q0 57 -26.5 85.5t-72.5 28.5q-51 0 -89.5 -39.5t-49.5 -112.5zM1212 1360 h184l-1076 -1360h-184z" />
<glyph unicode="&#x26;" horiz-adv-x="1317" d="M1239 74l-233 -132l-122 157q-93 -57 -192.5 -88t-195.5 -31q-101 0 -182.5 22t-140 63t-90 100t-31.5 134q0 10 0.5 19.5t1.5 19.5q7 66 34 120.5t70 103t100.5 92.5t126.5 89l-48 63q-40 53 -59 109t-19 108q0 8 0.5 14.5t1.5 14.5q8 72 41.5 131.5t90.5 103 t136.5 67.5t178.5 24q77 0 141 -18.5t110 -52.5t71.5 -83t25.5 -110q0 -8 -0.5 -16t-1.5 -16q-6 -54 -27 -97t-54.5 -80.5t-78.5 -72.5t-100 -73l-61 -41l223 -284q35 36 70 76t70 82l151 -150q-70 -99 -155 -181zM351 368q-9 -81 42.5 -122.5t141.5 -41.5q58 0 112 16.5 t107 46.5l-242 311q-33 -23 -61 -46.5t-49 -49t-34 -53.5t-17 -61zM618 887q42 27 73.5 48t53.5 42.5t35 45t16 55.5q5 46 -28 75t-86 29q-26 0 -51 -8.5t-45.5 -25t-35 -40t-17.5 -54.5q-5 -47 12.5 -83t40.5 -65l20 -27z" />
<glyph unicode="'" horiz-adv-x="359" d="M156 1360h258l-119 -454l-188 10z" />
<glyph unicode="(" horiz-adv-x="734" d="M411 560q-12 -111 -12 -210q0 -114 14 -210t37 -176.5t52.5 -146.5t61.5 -119l-181 -60q-59 81 -108 170.5t-84 187.5t-55 204t-20 220q0 35 2 69.5t6 70.5q16 146 59 283.5t106 260.5t142 227t167 183l171 -60q-56 -66 -112 -154t-105 -199t-86 -246t-55 -295z" />
<glyph unicode=")" horiz-adv-x="734" d="M333 592q12 111 12 209q0 114 -14 210t-37.5 177t-53.5 147t-62 119l182 60q61 -80 110.5 -169t84.5 -185.5t54 -201.5t19 -218q0 -36 -1.5 -73t-6.5 -75q-16 -146 -59 -283.5t-106 -260.5t-142.5 -227t-167.5 -183l-169 60q54 66 110 153.5t105 198.5t86.5 246t55.5 296 z" />
<glyph unicode="*" horiz-adv-x="1010" d="M723 1360l-63 -298l285 146l63 -177l-321 -126l186 -242l-171 -118l-147 262l-224 -277l-146 117l250 251l-294 113l111 179l248 -136l24 306h199z" />
<glyph unicode="+" horiz-adv-x="1079" d="M406 550h-318l31 218h319l46 316h251l-45 -316h316l-31 -218h-317l-46 -318h-252z" />
<glyph unicode="," horiz-adv-x="563" d="M129 212h271l-236 -516l-182 32z" />
<glyph unicode="-" horiz-adv-x="733" d="M91 570l32 226h541l-33 -226h-540z" />
<glyph unicode="." horiz-adv-x="550" d="M86 244h272l-35 -244h-273z" />
<glyph unicode="/" horiz-adv-x="855" d="M698 1360h213l-756 -1500h-213z" />
<glyph unicode="0" d="M102 677q24 166 74.5 296.5t124.5 221t170.5 138t212.5 47.5q96 0 170.5 -35.5t125.5 -102.5t77.5 -163t26.5 -216q0 -44 -3.5 -90t-10.5 -96q-24 -167 -75 -296.5t-126 -218.5t-172.5 -135.5t-215.5 -46.5q-95 0 -168 34.5t-123 100t-76 159.5t-26 214q0 45 3 91.5 t11 97.5zM388 677q-10 -65 -14.5 -120t-4.5 -103q0 -256 144 -256q97 0 165 120.5t103 358.5q10 67 15 125t5 107q0 265 -147 265q-95 0 -163 -126t-103 -371z" />
<glyph unicode="1" d="M122 0l29 196h264l135 933l-300 -78l28 197l371 112h220l-168 -1164h261l-29 -196h-811z" />
<glyph unicode="2" d="M990 218l-32 -218h-922l17 127q15 101 52.5 183t99 152t146.5 131t195 121q64 35 109.5 66.5t75 63.5t45.5 66t22 75q5 36 -6 66t-35 51t-60.5 32.5t-81.5 11.5q-51 0 -98.5 -9t-93 -23.5t-88.5 -33t-84 -36.5l-41 193q36 23 88 48t113.5 46t130.5 35t140 14 q90 0 166 -22.5t131.5 -64.5t86.5 -103t31 -137q0 -14 -1 -28.5t-3 -28.5q-12 -84 -48.5 -148.5t-91.5 -117.5t-126 -98.5t-151 -93.5q-60 -36 -112 -69.5t-94 -70.5t-72 -81t-44 -99h636z" />
<glyph unicode="3" d="M1048 1004q-16 -112 -87 -189.5t-185 -117.5q108 -35 166.5 -108t58.5 -173q0 -12 -1 -24.5t-3 -25.5q-13 -89 -60 -160.5t-122 -121.5t-174 -77t-216 -27q-54 0 -112 7t-112 19.5t-100.5 30t-77.5 39.5l86 192q63 -30 140.5 -50t171.5 -20q60 0 112.5 12.5t92.5 36.5 t65.5 59.5t32.5 82.5q3 18 3 35q0 45 -18 76t-50 50t-76.5 27.5t-96.5 8.5h-179l32 218h179q46 0 88.5 11.5t76 34.5t56.5 58.5t30 83.5q6 43 -6.5 75t-41 53t-71 31t-96.5 10q-81 0 -153.5 -16.5t-135.5 -41.5l-49 178q34 20 82 38t101.5 31.5t109 21.5t106.5 8 q99 0 179.5 -23.5t137.5 -66t88.5 -102.5t31.5 -133q0 -13 -1 -25t-3 -26z" />
<glyph unicode="4" d="M876 244l-36 -244h-286l36 244h-585l26 182l677 934h329l-129 -896h164l-32 -220h-164zM621 464l81 553l-400 -553h319z" />
<glyph unicode="5" d="M1023 438q-15 -102 -65.5 -186.5t-130 -145t-184 -93.5t-228.5 -33q-52 0 -106 5.5t-104 15.5t-92.5 24t-70.5 31l72 200q60 -26 129.5 -42t161.5 -16q68 0 124 14t97.5 43.5t68 74.5t35.5 108q2 14 3 26.5t1 23.5q0 45 -13.5 77t-38 52.5t-58 30t-73.5 9.5 q-51 0 -104.5 -8t-90.5 -24l-228 40l194 695h746l-32 -220h-520l-90 -289q48 11 104.5 17.5t121.5 6.5q89 0 159.5 -23.5t119 -68t74 -109.5t25.5 -148q0 -21 -2 -43t-5 -45z" />
<glyph unicode="6" d="M731 872q155 0 238.5 -83t83.5 -242q0 -23 -2 -48.5t-6 -51.5q-15 -102 -60 -188t-115.5 -148t-165 -96.5t-207.5 -34.5q-98 0 -172.5 33.5t-125.5 98t-77 157t-26 211.5q0 44 3 90t11 96q24 167 84 299.5t147.5 224.5t199.5 141t240 49q52 0 91.5 -3.5t71 -10 t57.5 -15.5t50 -19l-69 -202q-35 14 -82.5 23t-102.5 9q-62 0 -120 -23.5t-107 -73t-87.5 -126t-62.5 -181.5q69 62 147 88t164 26zM612 670q-54 0 -111.5 -21t-108.5 -78q-6 -62 -6 -111q0 -136 41 -199t122 -63q43 0 79 19t63 50.5t44.5 73t23.5 85.5q6 37 6 71 q0 38 -8 70t-26.5 55t-47.5 35.5t-71 12.5z" />
<glyph unicode="7" d="M1164 1360l-21 -146l-669 -1214h-283l637 1152h-660l30 208h966z" />
<glyph unicode="8" d="M46 385q17 111 87.5 190.5t181.5 125.5q-66 38 -100.5 98t-34.5 139q0 14 1 27.5t3 27.5q13 94 55 166.5t107 121.5t150 74t186 25q90 0 163 -21.5t125.5 -63t81 -101.5t28.5 -137q0 -16 -1.5 -31.5t-3.5 -32.5q-14 -102 -71.5 -174.5t-148.5 -117.5q88 -41 136 -108.5 t48 -157.5q0 -12 -1 -24.5t-3 -25.5q-14 -100 -61 -176t-120 -127t-168.5 -76.5t-206.5 -25.5q-97 0 -177.5 22.5t-138.5 66t-90 107.5t-32 146q0 15 1.5 30.5t3.5 32.5zM336 391q-3 -20 -3 -36q0 -78 49 -117.5t129 -39.5q44 0 84 13t71.5 37.5t52.5 60.5t28 82q3 19 3 38 q0 80 -50 123t-132 43q-43 0 -82 -14.5t-70 -41t-52 -64t-28 -84.5zM470 987q-3 -24 -3 -44q0 -70 35.5 -106.5t95.5 -36.5q35 0 66.5 12.5t56.5 36.5t42 58.5t24 79.5q3 19 3 37q0 68 -37.5 103t-101.5 35q-34 0 -64 -11.5t-54 -34t-40.5 -55t-22.5 -74.5z" />
<glyph unicode="9" d="M450 474q-80 0 -142 26t-104 73t-63.5 113.5t-21.5 146.5q0 23 1.5 46t5.5 48q14 99 59.5 182t117 143t166 94t207.5 34q202 0 300 -127t98 -362q0 -101 -18 -221q-23 -160 -79 -288t-139 -217t-189.5 -137t-229.5 -48q-53 0 -93.5 3.5t-72.5 10t-58.5 15.5t-51.5 19 l68 204q37 -15 86 -24.5t106 -9.5q58 0 111.5 23t98 70.5t79 121t56.5 174.5q-69 -60 -145.5 -86.5t-152.5 -26.5zM561 684q25 0 52.5 4.5t55 16t55 31t52.5 48.5q6 69 6 122q0 74 -11 123.5t-32 79t-50 41.5t-65 12q-47 0 -83.5 -19t-63.5 -51t-44 -75.5t-24 -91.5 q-2 -17 -3.5 -34t-1.5 -33q0 -38 8.5 -70t27 -55t48.5 -36t73 -13z" />
<glyph unicode=":" horiz-adv-x="589" d="M59 0zM192 914h272l-35 -244h-273zM95 244h272l-35 -244h-273z" />
<glyph unicode=";" horiz-adv-x="551" d="M0 0zM109 212h271l-236 -516l-182 32zM193 917h272l-35 -244h-273z" />
<glyph unicode="&#x3c;" horiz-adv-x="1042" d="M894 294l-37 -256l-799 348l36 244l900 348l-38 -256l-592 -214z" />
<glyph unicode="=" horiz-adv-x="1104" d="M114 662l29 206h894l-30 -206h-893zM56 266l30 206h894l-30 -206h-894z" />
<glyph unicode="&#x3e;" horiz-adv-x="1050" d="M118 722l37 256l801 -348l-36 -244l-901 -348l37 256l592 214z" />
<glyph unicode="?" horiz-adv-x="1002" d="M261 374q12 79 28 138.5t41.5 106t61 83.5t86.5 72q47 32 82.5 59.5t60 54.5t39 55t19.5 63q10 69 -36 110.5t-132 41.5q-91 0 -171.5 -25.5t-155.5 -60.5l-27 192q34 19 81 40t104 37.5t123 27.5t140 11q81 0 148 -20t115 -58.5t74.5 -93.5t26.5 -124q0 -14 -1 -28 t-3 -28q-11 -76 -42 -134.5t-74.5 -105.5t-94.5 -86.5t-102 -77.5q-27 -23 -48.5 -45.5t-37.5 -51t-27.5 -65.5t-18.5 -88h-259zM239 212h262l-30 -212h-262z" />
<glyph unicode="@" horiz-adv-x="1776" d="M1661 482q-11 -59 -32 -119t-52.5 -116t-73.5 -104.5t-96 -84.5t-120 -57t-145 -21q-75 0 -124 43t-62 121q-114 -160 -298 -160q-54 0 -96.5 18.5t-72 53.5t-45.5 85t-16 113q0 33 4.5 69.5t14.5 76.5q30 121 81.5 219.5t118 168t144.5 107t162 37.5q64 0 113 -8t88 -22 t71 -32.5t64 -39.5l-4 -4h5l-130 -544q-5 -25 -8 -44.5t-3 -35.5q0 -47 18 -62.5t40 -15.5q51 0 96 28t82 76.5t63 114t40 139.5q11 62 17 119t6 110q0 118 -29.5 211.5t-90.5 159t-153.5 100t-219.5 34.5q-142 0 -266 -53t-222.5 -151.5t-168 -238t-101.5 -313.5 q-11 -57 -16.5 -110.5t-5.5 -103.5q0 -122 32.5 -219.5t95.5 -165t155.5 -103.5t213.5 -36q44 0 92 5.5t94.5 15t89.5 22t78 27.5l12 -142q-39 -22 -87.5 -38t-100.5 -26.5t-105.5 -16t-101.5 -5.5q-156 0 -278 45.5t-207 132t-129.5 210t-44.5 279.5q0 110 22 229 q38 207 125 374.5t213 285t287 181t349 63.5q153 0 272.5 -45t201 -129t124 -204.5t42.5 -272.5q0 -54 -5.5 -111.5t-16.5 -119.5zM668 400q-16 -67 -16 -119q0 -127 97 -127q25 0 52 5.5t54 19.5t53.5 39.5t52.5 66.5l113 464q-23 8 -49.5 12.5t-56.5 4.5 q-111 0 -183.5 -93t-116.5 -273z" />
<glyph unicode="A" horiz-adv-x="1306" d="M841 284h-471l-130 -284h-282l647 1360h312l254 -1360h-282zM470 504h335l-90 536z" />
<glyph unicode="B" horiz-adv-x="1255" d="M252 1360h448q100 0 179 -22t134 -63t84.5 -98.5t29.5 -128.5q0 -13 -1 -25.5t-3 -26.5q-9 -60 -30.5 -107t-49.5 -83t-59 -62.5t-58 -44.5q97 -30 150 -94.5t53 -163.5q0 -14 -1 -28t-3 -29q-13 -89 -57.5 -160t-116.5 -121t-168.5 -76.5t-211.5 -26.5h-516zM427 589 l-52 -359h209q52 0 97.5 10.5t80.5 31.5t57.5 54t28.5 78q3 21 3 38q0 74 -47.5 110.5t-140.5 36.5h-236zM506 1130l-49 -335h298q23 28 46 72t31 101q2 8 2 15.5v15.5q0 66 -46.5 98.5t-135.5 32.5h-146z" />
<glyph unicode="C" horiz-adv-x="1086" d="M97 682q24 163 87.5 292.5t160.5 219.5t223.5 138t275.5 48q95 0 161.5 -16t112.5 -37l-78 -202q-42 17 -97.5 27t-118.5 10q-81 0 -151.5 -28t-127 -86.5t-96 -149t-57.5 -216.5q-5 -38 -8 -73.5t-3 -67.5q0 -91 21.5 -156t61 -106.5t96 -61t127.5 -19.5q75 0 143 16.5 t120 36.5l15 -203q-60 -29 -143 -48.5t-200 -19.5q-123 0 -222 39.5t-168.5 113t-107 178t-37.5 233.5q0 33 2.5 67.5t7.5 70.5z" />
<glyph unicode="D" horiz-adv-x="1324" d="M252 1360h439q128 0 231.5 -39t176 -111t112 -174t39.5 -229q0 -61 -9 -125q-23 -158 -87.5 -284.5t-161.5 -215t-223.5 -135.5t-274.5 -47h-439zM508 1142l-134 -924h130q82 0 155 27t131 84t98.5 144.5t58.5 208.5q5 35 7.5 66.5t2.5 60.5q0 89 -22.5 152.5t-64 103.5 t-100.5 58.5t-132 18.5h-130z" />
<glyph unicode="E" horiz-adv-x="1048" d="M55 0l197 1360h841l-32 -220h-554l-50 -346h492l-32 -220h-492l-51 -354h554l-32 -220h-841z" />
<glyph unicode="F" horiz-adv-x="970" d="M425 574l-83 -574h-287l197 1360h800l-32 -220h-513l-50 -346h449l-31 -220h-450z" />
<glyph unicode="G" horiz-adv-x="1314" d="M716 744h504l-96 -664q-109 -48 -221.5 -74t-241.5 -26q-133 0 -237 45.5t-176 124.5t-109.5 185.5t-37.5 228.5q0 29 1.5 58t6.5 58q22 154 89.5 282.5t171.5 221.5t241 144.5t300 51.5q103 0 185 -19t138 -47l-70 -201q-52 19 -121.5 34t-154.5 15q-98 0 -181 -32.5 t-146.5 -94t-106 -151.5t-59.5 -204q-4 -28 -6 -54.5t-2 -52.5q0 -84 21 -153t62.5 -118.5t103.5 -76.5t143 -27q42 0 83.5 5t80.5 17l44 306h-241z" />
<glyph unicode="H" horiz-adv-x="1389" d="M252 1360h286l-83 -572h530l83 572h287l-197 -1360h-287l82 568h-530l-82 -568h-286z" />
<glyph unicode="I" horiz-adv-x="818" d="M14 0l24 170h164l148 1020h-164l25 170h615l-24 -170h-166l-147 -1020h165l-25 -170h-615z" />
<glyph unicode="J" horiz-adv-x="905" d="M38 234q18 -6 42 -12t51 -11t55 -8t54 -3q45 0 79.5 10t59.5 33t40.5 60t23.5 90l140 967h286l-142 -979q-17 -121 -57 -199t-99.5 -123t-136.5 -62t-168 -17q-43 0 -85 4t-80.5 11t-71.5 16.5t-57 20.5z" />
<glyph unicode="K" horiz-adv-x="1247" d="M571 566h-149l-82 -566h-287l197 1360h287l-83 -571h150l364 571h298l-435 -674l308 -686h-316z" />
<glyph unicode="L" horiz-adv-x="970" d="M252 1360h286l-165 -1140h512l-32 -220h-798z" />
<glyph unicode="M" horiz-adv-x="1622" d="M829 719l439 641h321l-197 -1360h-287l74 509l93 471l-407 -602h-172l-234 611l-43 -470l-75 -519h-286l197 1360h325z" />
<glyph unicode="N" horiz-adv-x="1418" d="M252 1360h286v-1l1 1l425 -917l133 917h287l-197 -1360h-287l-426 919l-133 -919h-286z" />
<glyph unicode="O" horiz-adv-x="1369" d="M87 680q24 166 86 296t154 220t210.5 137t257.5 47q119 0 214.5 -38t162.5 -110t103 -175t36 -232q0 -35 -3 -71t-8 -74q-24 -167 -86 -297t-154 -219.5t-210.5 -136.5t-257.5 -47q-119 0 -214.5 38t-162.5 109.5t-103 174t-36 232.5q0 35 3 71.5t8 74.5zM375 680 q-6 -39 -8.5 -75.5t-2.5 -69.5q0 -168 67 -252.5t192 -84.5q73 0 136.5 32t114 93.5t86 151t52.5 205.5q6 40 8.5 76.5t2.5 70.5q0 168 -67 251.5t-193 83.5q-72 0 -135 -32t-113.5 -93.5t-86.5 -151t-53 -205.5z" />
<glyph unicode="P" horiz-adv-x="1199" d="M252 1360h483q110 0 195.5 -26t144 -73.5t88.5 -114.5t30 -150q0 -17 -1 -35t-4 -36q-15 -101 -60.5 -182t-119 -138t-174.5 -87.5t-226 -30.5h-196l-71 -487h-286zM507 1142l-64 -437h176q119 0 189.5 54t87.5 166q2 14 3 26.5t1 23.5q0 88 -54.5 127.5t-163.5 39.5 h-175z" />
<glyph unicode="Q" horiz-adv-x="1374" d="M89 680q24 166 85.5 296t153.5 220t211 137t257 47q119 0 215 -38t163 -110t103 -175t36 -232q0 -35 -3 -71t-8 -74q-28 -189 -102 -327.5t-187 -229.5l207 -316h-317l-129 196q-87 -23 -181 -23q-119 0 -214 38t-162 109.5t-103 174t-36 232.5q0 35 3 71.5t8 74.5z M377 680q-6 -39 -8.5 -75.5t-2.5 -69.5q0 -168 67 -252.5t192 -84.5q73 0 136.5 32t114 93.5t86 151t52.5 205.5q6 40 8.5 76.5t2.5 70.5q0 168 -67 251.5t-193 83.5q-72 0 -135 -32t-113.5 -93.5t-86.5 -151t-53 -205.5z" />
<glyph unicode="R" horiz-adv-x="1254" d="M252 1360h471q108 0 192 -24.5t141.5 -70t87.5 -110.5t30 -146q0 -17 -1 -34.5t-4 -35.5q-9 -60 -32.5 -112.5t-57.5 -97t-75.5 -82t-86.5 -67.5l189 -580h-301l-166 514h-222l-75 -514h-287zM508 1142l-60 -410h322q17 16 33.5 35.5t30.5 44.5t25 56t17 71q2 14 3 26.5 t1 23.5q0 83 -49 118t-148 35h-175z" />
<glyph unicode="S" horiz-adv-x="1055" d="M968 377q-10 -92 -51 -165.5t-108 -125t-156.5 -79t-195.5 -27.5q-55 0 -114 7t-116.5 19.5t-110 30.5t-93.5 41l93 216q91 -32 175 -53t178 -21q87 0 142 39.5t63 111.5q4 37 -9.5 66t-41 52.5t-68.5 43t-92 37.5q-78 28 -141.5 63t-108.5 79.5t-69 99.5t-24 123 q0 22 3 45q10 93 51 167t108 125.5t156 79.5t195 28q58 0 116 -9.5t110.5 -24t96 -32.5t73.5 -36l-78 -217q-45 17 -86 31.5t-80.5 25t-79 16.5t-82.5 6q-93 0 -145 -42t-60 -108q-7 -67 35.5 -112.5t151.5 -82.5q96 -33 165.5 -69.5t114 -80.5t65.5 -97t21 -118 q0 -26 -3 -53z" />
<glyph unicode="T" horiz-adv-x="1102" d="M771 1140l-165 -1140h-287l165 1140h-370l32 220h1027l-32 -220h-370z" />
<glyph unicode="U" horiz-adv-x="1374" d="M1054 1360h286l-134 -924q-16 -112 -68 -197.5t-132 -143t-185 -86.5t-227 -29q-107 0 -195.5 26t-151.5 75.5t-98 121.5t-35 164q0 17 1 35.5t4 37.5l133 920h287l-133 -920q-4 -23 -4 -48q0 -49 16 -85.5t45.5 -60.5t71 -36t91.5 -12q56 0 105.5 15.5t88.5 46t65 76 t35 104.5z" />
<glyph unicode="V" horiz-adv-x="1259" d="M547 664l39 -359l144 360l304 695h296l-632 -1360h-315l-237 1360h299z" />
<glyph unicode="W" horiz-adv-x="1776" d="M1543 1360h296l-477 -1360h-311l-115 924l-388 -924h-309l-85 1360h300l15 -985l407 985h244l119 -987z" />
<glyph unicode="X" horiz-adv-x="1184" d="M635 909l316 451h307l-486 -671l289 -689h-309l-181 460l-313 -460h-312l488 689l-291 671h309z" />
<glyph unicode="Y" horiz-adv-x="1196" d="M619 760l357 600h290l-548 -902l-67 -458h-286l67 464l-286 896h293z" />
<glyph unicode="Z" horiz-adv-x="1150" d="M217 1360h917l-24 -170l-731 -971h635l-73 -219h-927l25 174l720 967h-574z" />
<glyph unicode="[" horiz-adv-x="822" d="M351 1524h444l-23 -206h-157l-155 -1412h157l-23 -206h-443z" />
<glyph unicode="\" horiz-adv-x="912" d="M144 1360h286l320 -1500h-287z" />
<glyph unicode="]" horiz-adv-x="798" d="M665 1524l-200 -1824h-418l23 206h155l156 1412h-156l23 206h417z" />
<glyph unicode="^" horiz-adv-x="953" d="M328 708h-228l378 652h215l189 -652h-230l-106 390z" />
<glyph unicode="_" horiz-adv-x="934" d="M-134 -294l30 206h937l-30 -206h-937z" />
<glyph unicode="`" horiz-adv-x="679" d="M641 1164l-203 -52l-295 248l282 48z" />
<glyph unicode="a" horiz-adv-x="1127" d="M661 114q-57 -61 -135.5 -97.5t-190.5 -36.5q-142 0 -215 81.5t-73 239.5q0 28 2.5 58.5t7.5 62.5q19 133 67 243t118 189t157.5 122.5t186.5 43.5q36 0 64 -5t51 -15t41.5 -23.5t36.5 -29.5l34 53h241l-145 -1000h-230zM345 426q-2 -16 -3 -30.5t-1 -28.5 q0 -45 11 -76.5t30 -52t45 -29.5t55 -9q51 0 98 23t83 63l70 485q-26 12 -54.5 21t-64.5 9q-49 0 -92.5 -26.5t-78.5 -75t-60.5 -118t-37.5 -155.5z" />
<glyph unicode="b" horiz-adv-x="1188" d="M248 1402h289l-69 -475q28 22 58.5 39.5t65 29.5t74.5 18t89 6q76 0 138 -28t105.5 -80t67 -126t23.5 -167q0 -56 -9 -117q-18 -121 -60 -218t-104.5 -164.5t-141.5 -103.5t-170 -36q-53 0 -94 7.5t-74 22.5t-60 36t-51 48l-37 -94h-244zM787 502q5 29 6.5 55t1.5 49 q0 99 -40 147.5t-131 48.5q-49 0 -95.5 -17.5t-87.5 -44.5l-70 -479q33 -28 74 -45.5t92 -17.5q108 0 168.5 78.5t81.5 225.5z" />
<glyph unicode="c" horiz-adv-x="918" d="M69 502q18 121 67 217t123.5 163t172.5 102.5t213 35.5q90 0 156 -15t110 -39l-81 -196q-33 13 -72 22.5t-98 9.5q-56 0 -105 -17.5t-87.5 -54t-65.5 -93t-38 -135.5q-6 -44 -6 -81q0 -118 57.5 -170.5t156.5 -52.5q68 0 115 10t90 26l12 -189q-51 -28 -120.5 -46.5 t-166.5 -18.5q-102 0 -183.5 30t-138.5 85.5t-87.5 134.5t-30.5 177q0 23 1.5 46.5t5.5 48.5z" />
<glyph unicode="d" horiz-adv-x="1178" d="M698 84q-31 -25 -62 -44t-67 -32.5t-78 -20.5t-95 -7q-77 0 -138.5 28.5t-104.5 81.5t-66.5 128t-23.5 168q0 56 9 116q18 121 60.5 217t104.5 163t141 102.5t169 35.5q91 0 151 -23.5t106 -67.5l68 471h286l-203 -1400h-250zM367 502q-9 -60 -9 -108q0 -98 39 -147 t129 -49q49 0 95 16.5t86 43.5l70 484q-32 26 -72.5 43t-90.5 17q-108 0 -167 -76.5t-80 -223.5z" />
<glyph unicode="e" horiz-adv-x="1061" d="M344 435q-4 -115 51.5 -176t169.5 -61q78 0 147 12.5t117 26.5l31 -178q-66 -38 -153.5 -58.5t-185.5 -20.5q-109 0 -195.5 27.5t-147 81t-92.5 130.5t-32 176q0 23 1.5 47t5.5 50q19 129 68 227.5t123 165.5t169.5 101t207.5 34q76 0 142 -24t115 -68.5t76.5 -107 t27.5 -140.5q0 -15 -1.5 -30.5t-3.5 -32.5l-26 -182h-615zM587 814q-35 0 -66 -9.5t-58 -32.5t-49.5 -61t-38.5 -94h346q2 13 3 25t1 23q0 40 -10.5 68.5t-29.5 46.5t-44 26t-54 8z" />
<glyph unicode="f" horiz-adv-x="748" d="M104 1000h132l6 38q16 109 55 182t97.5 117.5t135.5 63.5t168 19q52 0 106 -9t91 -21l-46 -204q-29 4 -69.5 9t-83.5 5q-73 0 -113.5 -36t-53.5 -126l-6 -38h259l-27 -187h-259l-118 -813h-287l118 813h-139z" />
<glyph unicode="g" horiz-adv-x="1129" d="M135 -210q21 -5 51.5 -10.5t65 -10t71 -8t69.5 -3.5q59 0 104 10t76.5 32.5t51 59.5t27.5 91l16 112q-28 -19 -57 -33.5t-62.5 -24.5t-72.5 -15.5t-86 -5.5q-77 0 -138.5 28t-105 80t-67 126.5t-23.5 167.5q0 56 9 116q18 121 60 217t104 163t141 102.5t170 35.5 q48 0 87.5 -6t71.5 -18t59.5 -29.5t51.5 -39.5l26 73h255l-152 -1049q-18 -126 -65.5 -206.5t-119.5 -126.5t-166.5 -63.5t-207.5 -17.5q-43 0 -87.5 4t-85.5 11t-75.5 14.5t-57.5 15.5zM357 502q-5 -29 -6.5 -55t-1.5 -49q0 -99 40 -147.5t131 -48.5q47 0 91.5 15.5 t83.5 41.5l71 486q-32 26 -71.5 41.5t-87.5 15.5q-108 0 -168.5 -76.5t-81.5 -223.5z" />
<glyph unicode="h" horiz-adv-x="1188" d="M247 1400h289l-70 -487q71 51 147 79t159 28q65 0 119 -13.5t93 -45.5t60.5 -85t21.5 -133q0 -49 -9 -109l-92 -634h-286l92 634q2 17 3.5 31t1.5 27q0 62 -28 86t-86 24q-60 0 -116.5 -21.5t-107.5 -56.5l-105 -724h-289z" />
<glyph unicode="i" horiz-adv-x="596" d="M212 1000h287l-145 -1000h-287zM267 1402h293l-31 -212h-293z" />
<glyph unicode="j" horiz-adv-x="597" d="M-231 -219q11 -3 27.5 -6t36.5 -6t41.5 -5t42.5 -2q35 0 62 8.5t47 28t32.5 52t19.5 79.5l156 1070h286l-156 -1070q-17 -119 -55.5 -194.5t-93.5 -118.5t-122 -59t-141 -16q-29 0 -63.5 3t-68 9t-63 13.5t-49.5 16.5zM287 1402h294l-31 -212h-294z" />
<glyph unicode="k" horiz-adv-x="1073" d="M499 406h-107l-59 -406h-289l203 1400h289l-111 -771h103l236 371h305l-325 -474l224 -526h-313z" />
<glyph unicode="l" horiz-adv-x="596" d="M270 1400h287l-203 -1400h-287z" />
<glyph unicode="m" horiz-adv-x="1790" d="M189 1000h242l10 -95q75 54 155 84.5t168 30.5q97 0 170 -25.5t106 -90.5q76 55 158.5 85.5t175.5 30.5q65 0 119 -13t93 -44.5t60.5 -84t21.5 -131.5q0 -23 -1.5 -49.5t-6.5 -55.5l-93 -642h-287l93 642q2 14 3 27.5t1 24.5q0 60 -28 84t-86 24q-53 0 -103.5 -17 t-95.5 -46q-1 -10 -1.5 -20t-2.5 -21l-102 -698h-287l98 674q3 21 3 37q0 52 -29 71.5t-89 19.5q-58 0 -112 -20t-103 -53l-106 -729h-289z" />
<glyph unicode="n" horiz-adv-x="1188" d="M189 1000h242l12 -104q77 59 158 91.5t171 32.5q66 0 120 -13t92.5 -44.5t60 -84.5t21.5 -133q0 -24 -1.5 -51t-6.5 -56l-93 -638h-286l92 638q2 17 3.5 31t1.5 27q0 60 -28 83t-86 23q-60 0 -116.5 -22t-107.5 -57l-105 -723h-289z" />
<glyph unicode="o" horiz-adv-x="1161" d="M62 500q18 124 68.5 221t126.5 163.5t173.5 101t209.5 34.5q97 0 177 -29t137 -83.5t88 -133t31 -177.5q0 -23 -1.5 -47t-5.5 -50q-18 -125 -68.5 -222t-126.5 -163t-173 -100.5t-209 -34.5q-97 0 -177 28.5t-137 83t-88.5 133t-31.5 178.5q0 23 1.5 47t5.5 50zM350 500 q-4 -26 -6 -50t-2 -45q0 -57 13 -96.5t36.5 -64t56 -35.5t72.5 -11q46 0 88 16t76 52t58.5 93.5t36.5 140.5q4 27 6 51t2 45q0 57 -13 96.5t-36.5 64t-56.5 35t-73 10.5q-46 0 -87.5 -16.5t-75.5 -52.5t-58.5 -93.5t-36.5 -139.5z" />
<glyph unicode="p" horiz-adv-x="1181" d="M189 1000h253l6 -88q31 25 63 45.5t68 34t79 21t97 7.5q77 0 138.5 -28.5t105 -81t67 -127t23.5 -167.5q0 -56 -9 -116q-18 -121 -60 -217.5t-104.5 -163.5t-141.5 -103t-170 -36q-93 0 -153.5 24.5t-106.5 68.5l-69 -473h-289zM787 500q5 29 6.5 55t1.5 49 q0 100 -40 149t-131 49q-49 0 -95.5 -17.5t-87.5 -44.5l-70 -480q33 -28 74 -45t92 -17q108 0 168.5 77t81.5 225z" />
<glyph unicode="q" horiz-adv-x="1178" d="M680 70q-29 -21 -59 -38t-64 -28.5t-73.5 -17.5t-87.5 -6q-77 0 -138.5 28t-104.5 80.5t-66.5 127t-23.5 167.5q0 55 9 117q18 121 60.5 217.5t104.5 163.5t141 103t169 36q51 0 91.5 -7.5t73.5 -21t59.5 -34t50.5 -45.5l36 88h242l-203 -1400h-286zM366 500 q-9 -60 -9 -107q0 -98 39.5 -146.5t129.5 -48.5q49 0 95 16.5t86 43.5l70 484q-32 26 -72.5 43t-90.5 17q-108 0 -167 -77.5t-81 -224.5z" />
<glyph unicode="r" horiz-adv-x="753" d="M189 1000h242l8 -137q70 86 140 121.5t144 35.5q18 0 40 -1t40 -3l-51 -242q-24 5 -49 6.5t-57 1.5q-57 0 -112 -34.5t-106 -91.5l-95 -656h-289z" />
<glyph unicode="s" horiz-adv-x="935" d="M831 292q-8 -71 -43.5 -128.5t-94 -98t-137.5 -63t-173 -22.5q-50 0 -100 5.5t-96.5 16t-88 25.5t-74.5 33l61 198q38 -13 73.5 -25t71.5 -21t73 -14t77 -5q73 0 111.5 27t43.5 78q3 23 -8.5 40.5t-34 32t-54 25.5t-68.5 22q-57 16 -105 38.5t-83 54t-55 73.5t-20 97 q0 8 0.5 17t1.5 18q8 71 44 127.5t94.5 95.5t137.5 60t173 21q102 0 184.5 -21t133.5 -45l-66 -202q-35 12 -66 22t-60.5 17.5t-59.5 11.5t-63 4q-75 0 -113 -24t-43 -71q-2 -22 4.5 -38.5t23 -30t44 -25t67.5 -22.5q146 -42 217.5 -107t71.5 -164q0 -8 -0.5 -16.5 t-1.5 -16.5z" />
<glyph unicode="t" horiz-adv-x="795" d="M97 1000h139l38 260l290 20l-41 -280h271l-27 -187h-271l-65 -452q-2 -14 -3 -26t-1 -23q0 -54 26.5 -74.5t83.5 -20.5q40 0 79 6t66 12l-7 -208q-22 -8 -50 -14.5t-58.5 -11t-61.5 -7.5t-60 -3q-70 0 -127 12t-97.5 42t-62.5 81.5t-22 130.5q0 23 1.5 49t6.5 55l65 452 h-148z" />
<glyph unicode="u" horiz-adv-x="1188" d="M965 0h-240l-10 108q-76 -60 -158.5 -94t-172.5 -34q-65 0 -119 13.5t-93 45.5t-60.5 86.5t-21.5 137.5q0 52 9 115l90 622h289l-90 -622q-6 -38 -6 -67q0 -64 28 -88.5t85 -24.5q59 0 116 22t108 58l105 722h286z" />
<glyph unicode="v" horiz-adv-x="996" d="M66 1000h291l67 -450l23 -294l113 296l193 448h292l-489 -1000h-292z" />
<glyph unicode="w" horiz-adv-x="1466" d="M1206 1000h274l-387 -1000h-256l2 2l-97 655l-291 -655l1 -2h-252l-98 1000h274l12 -691l299 691h210l96 -685z" />
<glyph unicode="x" horiz-adv-x="1050" d="M264 0h-313l410 508l-256 492h309l126 -298l210 298h308l-398 -492l263 -508h-314l-127 307z" />
<glyph unicode="y" horiz-adv-x="1040" d="M554 -50q-44 -106 -91.5 -175.5t-97 -111t-101.5 -58.5t-105 -17q-42 0 -81.5 5t-71.5 13l50 208q16 0 23 -0.5t13 -1t15.5 -1t30.5 -0.5q22 0 41 6t36.5 21.5t35 42.5t36.5 68l-201 1051h292l92 -704l306 704h292z" />
<glyph unicode="z" horiz-adv-x="928" d="M135 1000h746l-23 -156l-503 -625h465l-72 -219h-764l24 172l491 609h-396z" />
<glyph unicode="{" horiz-adv-x="772" d="M95 673q38 0 71.5 9t60 33t44.5 65t25 105l24 220q12 112 43 193.5t84 134.5t130.5 78.5t183.5 25.5l17 -148q-81 0 -124.5 -69.5t-59.5 -214.5l-24 -220q-7 -62 -26.5 -109.5t-49.5 -83t-68 -60.5t-81 -43q35 -15 65 -37.5t51.5 -53t34 -69.5t12.5 -88q0 -23 -3 -47 l-26 -236q-3 -29 -5 -54.5t-2 -48.5q0 -94 30.5 -137.5t98.5 -43.5l-50 -148q-182 0 -267 83.5t-85 253.5q0 44 6 95l26 236q3 30 3 54q0 48 -11.5 79t-32.5 48.5t-50 24t-64 6.5z" />
<glyph unicode="|" horiz-adv-x="455" d="M229 1524h261l-264 -1824h-262z" />
<glyph unicode="}" horiz-adv-x="772" d="M692 490q-39 0 -73 -9t-60.5 -33t-44.5 -65t-25 -105l-24 -220q-12 -112 -43 -193.5t-84.5 -134.5t-130.5 -78.5t-182 -25.5l-18 148q81 0 124.5 69.5t59.5 214.5l24 220q7 62 27 109.5t49.5 83t67 60.5t81.5 42q-36 16 -65.5 38.5t-51 53t-33.5 70t-12 89.5v22t2 23 l26 236q6 57 6 102q0 95 -30 138.5t-97 43.5l50 148q181 0 266 -84.5t85 -253.5q0 -45 -6 -94l-26 -236q-3 -30 -3 -54q0 -49 11.5 -79.5t32.5 -48t50.5 -24t64.5 -6.5z" />
<glyph unicode="~" horiz-adv-x="1356" d="M621 441q-48 42 -88.5 61.5t-89.5 22.5q-22 1 -47.5 -6t-52 -25.5t-53.5 -50.5t-53 -82l-149 116q30 79 73.5 134.5t92 89.5t97.5 49.5t90 15.5q48 0 87.5 -7.5t73.5 -22t65 -35.5t63 -47q49 -41 93.5 -60.5t94.5 -22.5q22 -2 46.5 4.5t49 25t50 50.5t50.5 82l151 -116 q-30 -79 -74 -134t-92.5 -89.5t-97.5 -50t-89 -15.5q-49 0 -88.5 8t-73.5 22.5t-65.5 35.5t-63.5 47z" />
<glyph unicode="&#xa1;" horiz-adv-x="546" d="M163 0zM449.017 -375.916h-285.982l159.99 937.942h237.985zM607.007 784.014h-263.984l30.998 215.986h263.984z" />
<glyph unicode="&#xa2;" d="M155 502q15 103 53 188t95.5 149t132.5 106.5t165 61.5l25 167h205l-23 -157q63 -5 108.5 -18.5t80.5 -32.5l-82 -196q-32 13 -71.5 22.5t-98.5 9.5q-56 0 -104.5 -17.5t-87.5 -54t-65.5 -93t-38.5 -135.5q-6 -44 -6 -81q0 -59 15 -101t42.5 -69t67.5 -40t90 -13 q68 0 115 10t90 26l12 -189q-42 -23 -94.5 -39.5t-122.5 -22.5l-25 -177h-206l27 188q-73 17 -130 53t-96.5 88t-60 119.5t-20.5 147.5q0 24 2 49t6 51z" />
<glyph unicode="&#xa3;" horiz-adv-x="1127" d="M155 787h161l30 207q16 108 56 182t105 119t155 65t206 20q29 0 60 -2.5t61 -6.5t57.5 -9.5t49.5 -11.5l-34 -224q-19 4 -44.5 8t-54 7t-58.5 5t-58 2q-53 0 -91 -10.5t-64 -34t-41.5 -61t-23.5 -90.5l-24 -165h302l-30 -209h-302l-17 -117q-13 -87 -52.5 -142.5 t-108.5 -98.5h620l-32 -220h-977l32 220h8l-6 2q48 0 87 20.5t68.5 55.5t48.5 81.5t27 97.5l15 101h-189z" />
<glyph unicode="&#xa4;" horiz-adv-x="1367" d="M433 985q68 36 143.5 55.5t158.5 19.5q80 0 151.5 -19.5t129.5 -55.5l154 129l149 -163l-155 -129q24 -48 37 -102t13 -114q0 -21 -2 -42.5t-5 -43.5q-13 -91 -47.5 -167.5t-88.5 -141.5l120 -131l-196 -162l-121 133q-67 -35 -141 -53t-155 -18q-78 0 -148 18t-127 53 l-159 -133l-149 162l158 130q-26 50 -40 106.5t-14 119.5q0 40 6 84q14 89 47.5 164t85.5 140l-117 127l196 163zM610 200q64 0 122.5 22t104.5 63.5t77.5 101t42.5 133.5q2 17 3.5 33t1.5 31q0 61 -18.5 109t-52 81t-81.5 50t-107 17q-64 0 -122 -22.5t-104.5 -64t-78 -101 t-42.5 -133.5q-2 -17 -3.5 -33t-1.5 -32q0 -61 18.5 -108.5t52.5 -80t81.5 -49.5t106.5 -17z" />
<glyph unicode="&#xa5;" d="M591 760l357 600h290l-435 -714h220l-21 -146h-287l-25 -42l-14 -91h307l-21 -146h-307l-32 -221h-286l32 221h-283l21 146h283l15 98l-12 35h-267l22 146h198l-228 714h294z" />
<glyph unicode="&#xa6;" horiz-adv-x="455" d="M82 514h263l-119 -814h-262zM380 762h-262l111 762h262z" />
<glyph unicode="&#xa7;" horiz-adv-x="1152" d="M916 -77q-13 -92 -56.5 -165.5t-111 -125.5t-156 -79.5t-191.5 -27.5q-56 0 -113.5 8t-112 21.5t-104 32t-89.5 39.5l86 214q92 -32 175 -53.5t176 -21.5q82 0 136.5 40t65.5 112q5 33 -11.5 57.5t-50 44.5t-82 37t-108.5 34q-72 22 -130 53t-99 72t-63.5 91.5 t-22.5 111.5q0 12 1 24.5t3 25.5q14 101 67.5 173.5t136.5 119.5q-35 37 -54 81t-19 96q0 21 3 42q13 93 56.5 167.5t112 126.5t158.5 80t198 28q57 0 114 -9.5t108.5 -24.5t94 -33t70.5 -36l-81 -214q-45 16 -85 30.5t-79 24.5t-78.5 16t-82.5 6q-92 0 -146 -42.5 t-64 -109.5q-4 -29 8 -52t41.5 -44t77 -41t115.5 -41q165 -51 242 -131.5t77 -198.5q0 -14 -1 -28.5t-3 -30.5q-14 -98 -63 -170t-124 -123q61 -70 61 -163q0 -22 -3 -44zM562 598q-38 11 -74.5 25t-69.5 30q-75 -55 -89 -150q-9 -63 34.5 -108.5t150.5 -82.5q51 -16 95 -32 t83 -34q33 25 54.5 60.5t28.5 83.5q5 37 -5 66.5t-36.5 54t-69 45.5t-102.5 42z" />
<glyph unicode="&#xa8;" horiz-adv-x="1008" d="M214 1414h258l-21 -188h-258zM718 1414h258l-21 -188h-258z" />
<glyph unicode="&#xa9;" horiz-adv-x="1683" d="M488 670q13 93 48 166t89 123.5t125.5 76.5t158.5 26q85 0 143 -17.5t96 -44.5l-62 -137q-16 8 -34 15.5t-40.5 13t-51.5 9t-66 3.5q-42 0 -78.5 -13.5t-65.5 -42t-49.5 -73t-29.5 -105.5q-2 -17 -3.5 -32t-1.5 -29q0 -94 46.5 -135.5t121.5 -41.5q40 0 72 4t58 11 t48.5 16t44.5 20l24 -135q-24 -15 -51 -28.5t-58.5 -23.5t-68 -16t-81.5 -6q-81 0 -144 22t-106.5 63.5t-66.5 101t-23 133.5q0 37 6 76zM953 1380q133 0 245.5 -40t194.5 -115.5t128 -183.5t46 -243q0 -57 -9 -118q-24 -166 -96.5 -296t-180.5 -220t-244 -137t-287 -47 q-132 0 -244.5 40.5t-194.5 116t-128.5 183.5t-46.5 243q0 55 9 117q24 166 96.5 296t180.5 220t244 137t287 47zM768 104q114 0 222 35t196 106.5t150 179.5t83 255q9 63 9 120q0 119 -37.5 205.5t-103.5 142.5t-156.5 82.5t-195.5 26.5q-114 0 -222 -35t-196 -106.5 t-149.5 -180t-82.5 -255.5q-9 -65 -9 -120q0 -119 37.5 -205.5t103.5 -142t156 -82t195 -26.5z" />
<glyph unicode="&#xaa;" horiz-adv-x="835" d="M561 1081l3 20q2 8 2 15.5v14.5q0 48 -28 65.5t-79 17.5q-27 0 -58 -4t-61 -10.5t-57.5 -14.5t-47.5 -17l-17 149q29 13 64 24.5t73 20t76.5 13.5t74.5 5q59 0 109.5 -10t87 -35t57.5 -66t21 -104q0 -15 -1.5 -31t-3.5 -33l-63 -433h-194l-1 72q-18 -13 -41.5 -28 t-51.5 -27.5t-60 -20.5t-66 -8q-50 0 -88 13t-64 35.5t-39.5 53.5t-13.5 68v16t2 16q7 49 37.5 90.5t78 70.5t108.5 45.5t129 16.5h112zM391 805q18 0 37.5 4.5t37.5 11t34 14t27 13.5l15 104h-96q-36 -1 -61 -10t-41 -22t-24 -26.5t-9 -23.5q-5 -34 20 -49.5t60 -15.5z" />
<glyph unicode="&#xab;" horiz-adv-x="1113" d="M70 42zM517 152l-145 -110l-302 386l12 84l417 406l113 -110l-268 -336zM954 152l-145 -110l-302 386l12 84l417 406l113 -110l-268 -336z" />
<glyph unicode="&#xac;" horiz-adv-x="1177" d="M95 563l32 220h938l-69 -474h-242l36 254h-695z" />
<glyph unicode="&#xad;" horiz-adv-x="1112" d="M70 538zM70 538l28 194h938l-28 -194h-938z" />
<glyph unicode="&#xae;" horiz-adv-x="1683" d="M953 1380q133 0 245.5 -40t194.5 -115.5t128 -183.5t46 -243q0 -57 -9 -118q-24 -166 -96.5 -296t-180.5 -220t-244 -137t-287 -47q-132 0 -244.5 40.5t-194.5 116t-128.5 183.5t-46.5 243q0 55 9 117q24 166 96.5 296t180.5 220t244 137t287 47zM768 104q114 0 222 35 t196 106.5t150 179.5t83 255q9 63 9 120q0 119 -37.5 205.5t-103.5 142.5t-156.5 82.5t-195.5 26.5q-114 0 -222 -35t-196 -106.5t-149.5 -180t-82.5 -255.5q-9 -65 -9 -120q0 -119 37.5 -205.5t103.5 -142t156 -82t195 -26.5zM642 1054h290q57 0 102.5 -11t78 -34t50 -58 t17.5 -84q0 -21 -3 -43q-10 -67 -48 -112t-93 -74l99 -306h-177l-80 262h-133l-38 -262h-170zM789 901l-26 -181h139q13 2 29 8.5t30 17.5t24.5 27t13.5 37q7 52 -21 71.5t-79 19.5h-110z" />
<glyph unicode="&#xaf;" horiz-adv-x="930" d="M194 1422h738l-18 -161h-737z" />
<glyph unicode="&#xb0;" horiz-adv-x="661" d="M441 1376q43 0 80.5 -15t65.5 -41.5t44 -62.5t16 -77q0 -8 -0.5 -15t-1.5 -15q-7 -48 -31.5 -89t-61.5 -71t-82.5 -47t-94.5 -17q-43 0 -80 15t-64.5 41t-43 61.5t-15.5 76.5q0 8 0.5 15t1.5 15q7 48 31 89.5t60.5 71.5t81.5 47.5t94 17.5zM391 1032q25 0 48.5 9.5 t42 25.5t31 37.5t15.5 45.5q7 51 -22 84.5t-81 33.5q-24 0 -47 -9t-42 -25t-31.5 -37.5t-16.5 -46.5t2.5 -46.5t20.5 -37.5t34.5 -25t45.5 -9z" />
<glyph unicode="&#xb1;" horiz-adv-x="1068" d="M416 617h-319l32 218h319l46 316h251l-46 -316h317l-32 -218h-316l-46 -318h-252zM2 -2l28 192h870l-27 -192h-871z" />
<glyph unicode="&#xb2;" horiz-adv-x="743" d="M662 805l-20 -137h-535l9 70q7 51 26 91.5t52.5 76t83 67.5t118.5 65q36 17 60.5 31.5t40 29t24 30.5t11.5 36q10 69 -97 69q-32 0 -60 -4.5t-54 -12t-51.5 -17.5t-52.5 -20l-20 124q22 12 51.5 25.5t65 24.5t75 18.5t83.5 7.5q112 0 176 -45.5t64 -126.5q0 -8 -0.5 -15 t-1.5 -15q-6 -44 -25.5 -76.5t-49.5 -59.5t-71 -51t-90 -49q-34 -17 -61 -32.5t-47.5 -31.5t-35 -34t-22.5 -39h354z" />
<glyph unicode="&#xb3;" horiz-adv-x="673" d="M663 1182q-8 -58 -44 -97.5t-96 -60.5q63 -21 93 -64.5t21 -104.5q-14 -95 -92.5 -149t-227.5 -54q-66 0 -131 13.5t-110 37.5l51 123q43 -16 84.5 -27t100.5 -11q63 0 106 20t49 63q7 46 -22 65.5t-92 19.5h-133l20 136h133q48 0 79 17.5t37 58.5q6 42 -22.5 58 t-86.5 16q-52 0 -93.5 -8.5t-86.5 -22.5l-21 115q23 11 52 21t60 17.5t62.5 11.5t59.5 4q129 0 190.5 -46t61.5 -122q0 -8 -0.5 -15t-1.5 -15z" />
<glyph unicode="&#xb4;" horiz-adv-x="679" d="M442 1408l274 -48l-349 -248l-182 40z" />
<glyph unicode="&#xb6;" horiz-adv-x="1024" d="M816 0h-287l76 520h-24q-105 0 -187 25t-138.5 71.5t-86 111.5t-29.5 146q0 17 1.5 34t3.5 34q14 98 58.5 175.5t116 131.5t168 82.5t214.5 28.5h311z" />
<glyph unicode="&#xb7;" horiz-adv-x="405" d="M36 196h212l-28 -196h-212z" />
<glyph unicode="&#xb8;" horiz-adv-x="613" d="M386 38q18 -60 18 -118q0 -65 -23.5 -123.5t-72 -104t-123 -75.5t-175.5 -39l-41 139q42 3 81 16.5t69 36.5t48 55.5t18 74.5q0 52 -32 113z" />
<glyph unicode="&#xb9;" horiz-adv-x="492" d="M77 668l16 114h106l63 437l-123 -36l18 124l168 58h132l-84 -583h104l-17 -114h-383z" />
<glyph unicode="&#xba;" horiz-adv-x="866" d="M142 1017q13 87 48 154.5t87.5 114t120 70.5t145.5 24q69 0 126 -20t97 -58.5t62 -93.5t22 -124q0 -16 -1.5 -33t-3.5 -34q-13 -88 -48 -155.5t-88.5 -113.5t-122 -70t-148.5 -24q-68 0 -123.5 20t-95 57.5t-61 92.5t-21.5 124q0 17 1 34t4 35zM353 1017q-2 -18 -3.5 -34 t-1.5 -30q0 -38 8.5 -64t23.5 -42.5t35.5 -24t45.5 -7.5q31 0 59 11t50.5 35t38.5 62.5t24 93.5q3 18 4 34.5t1 30.5q0 76 -32 107t-86 31q-29 0 -55.5 -11t-49 -35.5t-38.5 -63t-24 -93.5z" />
<glyph unicode="&#xbb;" horiz-adv-x="1115" d="M22 42zM117 808l145 110l301 -386l-12 -84l-416 -406l-113 110l266 336zM556 808l145 110l301 -386l-12 -84l-416 -406l-113 110l266 336z" />
<glyph unicode="&#xbc;" horiz-adv-x="1390" d="M89 0zM113 669l16 114h106l63 437l-123 -36l18 124l168 58h132l-84 -583h104l-17 -114h-383zM1165 1360h184l-1076 -1360h-184zM1183 125l-17 -123h-158l18 123h-378l14 100l429 475h176l-66 -453h82l-18 -122h-82zM1044 247l40 281l-251 -281h211z" />
<glyph unicode="&#xbd;" horiz-adv-x="1502" d="M105 0zM1343 136l-20 -137h-535l9 70q7 51 26 91.5t52.5 76t83 67.5t118.5 65q36 17 60.5 31.5t40 29t24 30.5t11.5 36q10 69 -97 69q-32 0 -60 -4.5t-54 -12t-51.5 -17.5t-52.5 -20l-20 124q22 12 51.5 25.5t65 24.5t75 18.5t83.5 7.5q112 0 176 -45.5t64 -126.5 q0 -8 -0.5 -15t-1.5 -15q-6 -44 -25.5 -76.5t-49.5 -59.5t-71 -51t-90 -49q-34 -17 -61 -32.5t-47.5 -31.5t-35 -34t-22.5 -39h354zM113 668l16 114h106l63 437l-123 -36l18 124l168 58h132l-84 -583h104l-17 -114h-383zM1181 1360h184l-1076 -1360h-184z" />
<glyph unicode="&#xbe;" horiz-adv-x="1368" d="M76 0zM663 1182q-8 -58 -44 -97.5t-96 -60.5q63 -21 93 -64.5t21 -104.5q-14 -95 -92.5 -149t-227.5 -54q-66 0 -131 13.5t-110 37.5l51 123q43 -16 84.5 -27t100.5 -11q63 0 106 20t49 63q7 46 -22 65.5t-92 19.5h-133l20 136h133q48 0 79 17.5t37 58.5q6 42 -22.5 58 t-86.5 16q-52 0 -93.5 -8.5t-86.5 -22.5l-21 115q23 11 52 21t60 17.5t62.5 11.5t59.5 4q129 0 190.5 -46t61.5 -122q0 -8 -0.5 -15t-1.5 -15zM1218 1360h184l-1076 -1360h-184zM1197 125l-17 -123h-158l18 123h-378l14 100l429 475h176l-66 -453h82l-18 -122h-82zM1058 247 l40 281l-251 -281h211z" />
<glyph unicode="&#xbf;" horiz-adv-x="1001" d="M215 0zM923.016 623.022q-11.999 -78.9951 -27.998 -138.491t-41.4971 -105.993q-25.499 -46.4971 -60.9971 -83.4951q-35.4971 -36.998 -86.4941 -71.9961q-46.9971 -31.998 -82.4951 -59.4961t-59.9961 -54.4961q-24.499 -26.999 -38.998 -54.9971t-19.499 -62.9961 q-9.99902 -68.9961 35.998 -110.493q45.9971 -41.498 131.992 -41.498q90.9941 0 171.489 25.499q80.4951 25.498 155.491 60.4961l26.998 -191.988q-33.998 -18.999 -80.9951 -39.9971q-46.9971 -20.999 -103.994 -37.498q-56.9961 -16.499 -122.992 -27.498 q-65.9961 -11 -139.991 -11q-80.9951 0 -147.991 19.999t-114.993 58.4961q-47.9971 38.498 -74.4951 93.4951q-26.498 54.9961 -26.498 123.992q0 13.999 0.999023 27.998q1 13.999 3 27.998q11 75.9961 41.998 134.492t74.4951 105.493t94.4941 86.4951 q50.9971 39.4971 101.994 77.4951q26.998 22.999 48.4971 45.4971q21.498 22.499 37.4971 50.9971t27.499 65.4961q11.499 36.998 18.498 87.9941h258.984zM945.015 785.013h-261.984l29.998 211.987h261.984z" />
<glyph unicode="&#xc0;" horiz-adv-x="1306" d="M0 0zM841 284h-471l-130 -284h-282l647 1360h312l254 -1360h-282zM470 504h335l-90 536zM931 1524l-203 -52l-295 248l282 48z" />
<glyph unicode="&#xc1;" horiz-adv-x="1306" d="M0 0zM841 284h-471l-130 -284h-282l647 1360h312l254 -1360h-282zM470 504h335l-90 536zM928 1770l274 -48l-349 -248l-182 40z" />
<glyph unicode="&#xc2;" horiz-adv-x="1306" d="M0 0zM841 284h-471l-130 -284h-282l647 1360h312l254 -1360h-282zM470 504h335l-90 536zM698 1472h-247l317 232h168l249 -232h-248l-104 110z" />
<glyph unicode="&#xc3;" horiz-adv-x="1306" d="M0 0zM841 284h-471l-130 -284h-282l647 1360h312l254 -1360h-282zM470 504h335l-90 536zM947 1661q9 1 24 6t33 16t38.5 29t40.5 46l104 -106q-51 -72 -108 -112.5t-112 -47.5q-12 -2 -23 -3.5t-22 -1.5q-54 0 -96 23t-78 52q-29 22 -55.5 34t-47.5 10q-9 -1 -22.5 -5 t-31 -14t-37.5 -28t-43 -46l-106 100q49 72 107.5 112t113.5 50q19 3 37 3q56 0 100 -23.5t80 -50.5q27 -24 55 -34.5t49 -8.5z" />
<glyph unicode="&#xc4;" horiz-adv-x="1306" d="M0 0zM841 284h-471l-130 -284h-282l647 1360h312l254 -1360h-282zM470 504h335l-90 536zM453 1660h258l-21 -188h-258zM957 1660h258l-21 -188h-258z" />
<glyph unicode="&#xc5;" horiz-adv-x="1306" d="M0 0zM841 284h-471l-130 -284h-282l647 1360h312l254 -1360h-282zM470 504h335l-90 536zM813 1860q40 0 74.5 -15.5t58.5 -42t35.5 -61.5t5.5 -75q-6 -42 -27 -77.5t-52.5 -61.5t-70.5 -40.5t-80 -14.5t-75.5 15t-58.5 41.5t-35 61.5t-5 76t27 76.5t52.5 61.5t70 41 t80.5 15zM773 1588q35 0 61.5 23t31.5 55q5 34 -15 56t-55 22q-32 0 -60 -22.5t-33 -55.5q-2 -16 2.5 -30.5t14 -25t23.5 -16.5t30 -6z" />
<glyph unicode="&#xc6;" horiz-adv-x="1949" d="M965 296h-457l-230 -296l-306 1l1075 1359h913l-32 -220h-554l-50 -346h492l-32 -220h-492l-51 -354h554l-32 -220h-841zM997 516l72 501l-390 -501h318z" />
<glyph unicode="&#xc7;" horiz-adv-x="1086" d="M87 0zM97 682q24 163 87.5 292.5t160.5 219.5t223.5 138t275.5 48q95 0 161.5 -16t112.5 -37l-78 -202q-42 17 -97.5 27t-118.5 10q-81 0 -151.5 -28t-127 -86.5t-96 -149t-57.5 -216.5q-5 -38 -8 -73.5t-3 -67.5q0 -91 21.5 -156t61 -106.5t96 -61t127.5 -19.5 q75 0 143 16.5t120 36.5l15 -203q-60 -29 -143 -48.5t-200 -19.5q-123 0 -222 39.5t-168.5 113t-107 178t-37.5 233.5q0 33 2.5 67.5t7.5 70.5zM688 38q18 -60 18 -118q0 -65 -23.5 -123.5t-72 -104t-123 -75.5t-175.5 -39l-41 139q42 3 81 16.5t69 36.5t48 55.5t18 74.5 q0 52 -32 113z" />
<glyph unicode="&#xc8;" horiz-adv-x="1048" d="M55 0zM55 0l197 1360h841l-32 -220h-554l-50 -346h492l-32 -220h-492l-51 -354h554l-32 -220h-841zM846 1522l-203 -52l-295 248l282 48z" />
<glyph unicode="&#xc9;" horiz-adv-x="1048" d="M55 0zM55 0l197 1360h841l-32 -220h-554l-50 -346h492l-32 -220h-492l-51 -354h554l-32 -220h-841zM843 1768l274 -48l-349 -248l-182 40z" />
<glyph unicode="&#xca;" horiz-adv-x="1048" d="M55 0zM55 0l197 1360h841l-32 -220h-554l-50 -346h492l-32 -220h-492l-51 -354h554l-32 -220h-841zM613 1470h-247l317 232h168l249 -232h-248l-104 110z" />
<glyph unicode="&#xcb;" horiz-adv-x="1048" d="M55 0zM55 0l197 1360h841l-32 -220h-554l-50 -346h492l-32 -220h-492l-51 -354h554l-32 -220h-841zM368 1658h258l-21 -188h-258zM872 1658h258l-21 -188h-258z" />
<glyph unicode="&#xcc;" horiz-adv-x="818" d="M14 0zM14 0l24 170h164l148 1020h-164l25 170h615l-24 -170h-166l-147 -1020h165l-25 -170h-615zM692 1522l-203 -52l-295 248l282 48z" />
<glyph unicode="&#xcd;" horiz-adv-x="818" d="M14 0zM14 0l24 170h164l148 1020h-164l25 170h615l-24 -170h-166l-147 -1020h165l-25 -170h-615zM690 1768l274 -48l-349 -248l-182 40z" />
<glyph unicode="&#xce;" horiz-adv-x="818" d="M14 0zM14 0l24 170h164l148 1020h-164l25 170h615l-24 -170h-166l-147 -1020h165l-25 -170h-615zM459 1470h-247l317 232h168l249 -232h-248l-104 110z" />
<glyph unicode="&#xcf;" horiz-adv-x="818" d="M14 0zM14 0l24 170h164l148 1020h-164l25 170h615l-24 -170h-166l-147 -1020h165l-25 -170h-615zM214 1658h258l-21 -188h-258zM718 1658h258l-21 -188h-258z" />
<glyph unicode="&#xd0;" horiz-adv-x="1382" d="M191 558h-102l31 218h102l85 584h439q128 0 231.5 -38.5t176 -110.5t112 -174t39.5 -228q0 -31 -2.5 -62.5t-7.5 -64.5q-23 -158 -87 -284.5t-161.5 -215t-224 -135.5t-274.5 -47h-438zM478 558l-50 -340h131q82 0 155 27t131 84t98.5 144.5t58.5 208.5q5 35 7.5 66 t2.5 60q0 90 -22.5 153t-64 103.5t-100.5 59t-132 18.5h-131l-53 -366h244l-32 -218h-243z" />
<glyph unicode="&#xd1;" horiz-adv-x="1418" d="M55 0zM252 1360h286v-1l1 1l425 -917l133 917h287l-197 -1360h-287l-426 919l-133 -919h-286zM992 1659q9 1 24 6t33 16t38.5 29t40.5 46l104 -106q-51 -72 -108 -112.5t-112 -47.5q-12 -2 -23 -3.5t-22 -1.5q-54 0 -96 23t-78 52q-29 22 -55.5 34t-47.5 10 q-9 -1 -22.5 -5t-31 -14t-37.5 -28t-43 -46l-106 100q49 72 107.5 112t113.5 50q19 3 37 3q56 0 100 -23.5t80 -50.5q27 -24 55 -34.5t49 -8.5z" />
<glyph unicode="&#xd2;" horiz-adv-x="1369" d="M76 0zM87 680q24 166 86 296t154 220t210.5 137t257.5 47q119 0 214.5 -38t162.5 -110t103 -175t36 -232q0 -35 -3 -71t-8 -74q-24 -167 -86 -297t-154 -219.5t-210.5 -136.5t-257.5 -47q-119 0 -214.5 38t-162.5 109.5t-103 174t-36 232.5q0 35 3 71.5t8 74.5zM375 680 q-6 -39 -8.5 -75.5t-2.5 -69.5q0 -168 67 -252.5t192 -84.5q73 0 136.5 32t114 93.5t86 151t52.5 205.5q6 40 8.5 76.5t2.5 70.5q0 168 -67 251.5t-193 83.5q-72 0 -135 -32t-113.5 -93.5t-86.5 -151t-53 -205.5zM962 1540l-203 -52l-295 248l282 48z" />
<glyph unicode="&#xd3;" horiz-adv-x="1369" d="M76 0zM87 680q24 166 86 296t154 220t210.5 137t257.5 47q119 0 214.5 -38t162.5 -110t103 -175t36 -232q0 -35 -3 -71t-8 -74q-24 -167 -86 -297t-154 -219.5t-210.5 -136.5t-257.5 -47q-119 0 -214.5 38t-162.5 109.5t-103 174t-36 232.5q0 35 3 71.5t8 74.5zM375 680 q-6 -39 -8.5 -75.5t-2.5 -69.5q0 -168 67 -252.5t192 -84.5q73 0 136.5 32t114 93.5t86 151t52.5 205.5q6 40 8.5 76.5t2.5 70.5q0 168 -67 251.5t-193 83.5q-72 0 -135 -32t-113.5 -93.5t-86.5 -151t-53 -205.5zM959 1786l274 -48l-349 -248l-182 40z" />
<glyph unicode="&#xd4;" horiz-adv-x="1369" d="M76 0zM87 680q24 166 86 296t154 220t210.5 137t257.5 47q119 0 214.5 -38t162.5 -110t103 -175t36 -232q0 -35 -3 -71t-8 -74q-24 -167 -86 -297t-154 -219.5t-210.5 -136.5t-257.5 -47q-119 0 -214.5 38t-162.5 109.5t-103 174t-36 232.5q0 35 3 71.5t8 74.5zM375 680 q-6 -39 -8.5 -75.5t-2.5 -69.5q0 -168 67 -252.5t192 -84.5q73 0 136.5 32t114 93.5t86 151t52.5 205.5q6 40 8.5 76.5t2.5 70.5q0 168 -67 251.5t-193 83.5q-72 0 -135 -32t-113.5 -93.5t-86.5 -151t-53 -205.5zM729 1488h-247l317 232h168l249 -232h-248l-104 110z" />
<glyph unicode="&#xd5;" horiz-adv-x="1369" d="M76 0zM87 680q24 166 86 296t154 220t210.5 137t257.5 47q119 0 214.5 -38t162.5 -110t103 -175t36 -232q0 -35 -3 -71t-8 -74q-24 -167 -86 -297t-154 -219.5t-210.5 -136.5t-257.5 -47q-119 0 -214.5 38t-162.5 109.5t-103 174t-36 232.5q0 35 3 71.5t8 74.5zM375 680 q-6 -39 -8.5 -75.5t-2.5 -69.5q0 -168 67 -252.5t192 -84.5q73 0 136.5 32t114 93.5t86 151t52.5 205.5q6 40 8.5 76.5t2.5 70.5q0 168 -67 251.5t-193 83.5q-72 0 -135 -32t-113.5 -93.5t-86.5 -151t-53 -205.5zM978 1677q9 1 24 6t33 16t38.5 29t40.5 46l104 -106 q-51 -72 -108 -112.5t-112 -47.5q-12 -2 -23 -3.5t-22 -1.5q-54 0 -96 23t-78 52q-29 22 -55.5 34t-47.5 10q-9 -1 -22.5 -5t-31 -14t-37.5 -28t-43 -46l-106 100q49 72 107.5 112t113.5 50q19 3 37 3q56 0 100 -23.5t80 -50.5q27 -24 55 -34.5t49 -8.5z" />
<glyph unicode="&#xd6;" horiz-adv-x="1369" d="M76 0zM87 680q24 166 86 296t154 220t210.5 137t257.5 47q119 0 214.5 -38t162.5 -110t103 -175t36 -232q0 -35 -3 -71t-8 -74q-24 -167 -86 -297t-154 -219.5t-210.5 -136.5t-257.5 -47q-119 0 -214.5 38t-162.5 109.5t-103 174t-36 232.5q0 35 3 71.5t8 74.5zM375 680 q-6 -39 -8.5 -75.5t-2.5 -69.5q0 -168 67 -252.5t192 -84.5q73 0 136.5 32t114 93.5t86 151t52.5 205.5q6 40 8.5 76.5t2.5 70.5q0 168 -67 251.5t-193 83.5q-72 0 -135 -32t-113.5 -93.5t-86.5 -151t-53 -205.5zM484 1676h258l-21 -188h-258zM988 1676h258l-21 -188h-258z " />
<glyph unicode="&#xd7;" horiz-adv-x="1038" d="M310 1038l233 -260l309 260l131 -146l-308 -260l231 -258l-173 -146l-231 258l-307 -258l-132 146l307 259l-233 260z" />
<glyph unicode="&#xd8;" horiz-adv-x="1421" d="M135 680q24 166 86 296t154 220t210.5 137t257.5 47q100 0 184.5 -26.5t148.5 -77.5l75 84h188l-168 -189q88 -135 88 -341q0 -36 -3 -73.5t-8 -76.5q-24 -167 -86 -297t-154 -219.5t-210.5 -136.5t-257.5 -47q-100 0 -185 26t-148 77l-73 -83h-188l166 187 q-88 135 -88 342q0 36 3 73.5t8 77.5zM423 680q-5 -38 -8 -72t-3 -66t3 -61t8 -56l577 653q-66 84 -189 84q-72 0 -135 -32t-113.5 -93.5t-86.5 -151t-53 -205.5zM1060 680q5 38 8 72.5t3 66.5t-2.5 60.5t-7.5 54.5l-578 -652q67 -84 188 -84q73 0 136.5 32t114 93.5t86 151 t52.5 205.5z" />
<glyph unicode="&#xd9;" horiz-adv-x="1374" d="M114 0zM1054 1360h286l-134 -924q-16 -112 -68 -197.5t-132 -143t-185 -86.5t-227 -29q-107 0 -195.5 26t-151.5 75.5t-98 121.5t-35 164q0 17 1 35.5t4 37.5l133 920h287l-133 -920q-4 -23 -4 -48q0 -49 16 -85.5t45.5 -60.5t71 -36t91.5 -12q56 0 105.5 15.5t88.5 46 t65 76t35 104.5zM970 1522l-203 -52l-295 248l282 48z" />
<glyph unicode="&#xda;" horiz-adv-x="1374" d="M114 0zM1054 1360h286l-134 -924q-16 -112 -68 -197.5t-132 -143t-185 -86.5t-227 -29q-107 0 -195.5 26t-151.5 75.5t-98 121.5t-35 164q0 17 1 35.5t4 37.5l133 920h287l-133 -920q-4 -23 -4 -48q0 -49 16 -85.5t45.5 -60.5t71 -36t91.5 -12q56 0 105.5 15.5t88.5 46 t65 76t35 104.5zM967 1768l274 -48l-349 -248l-182 40z" />
<glyph unicode="&#xdb;" horiz-adv-x="1374" d="M114 0zM1054 1360h286l-134 -924q-16 -112 -68 -197.5t-132 -143t-185 -86.5t-227 -29q-107 0 -195.5 26t-151.5 75.5t-98 121.5t-35 164q0 17 1 35.5t4 37.5l133 920h287l-133 -920q-4 -23 -4 -48q0 -49 16 -85.5t45.5 -60.5t71 -36t91.5 -12q56 0 105.5 15.5t88.5 46 t65 76t35 104.5zM737 1470h-247l317 232h168l249 -232h-248l-104 110z" />
<glyph unicode="&#xdc;" horiz-adv-x="1374" d="M114 0zM1054 1360h286l-134 -924q-16 -112 -68 -197.5t-132 -143t-185 -86.5t-227 -29q-107 0 -195.5 26t-151.5 75.5t-98 121.5t-35 164q0 17 1 35.5t4 37.5l133 920h287l-133 -920q-4 -23 -4 -48q0 -49 16 -85.5t45.5 -60.5t71 -36t91.5 -12q56 0 105.5 15.5t88.5 46 t65 76t35 104.5zM492 1658h258l-21 -188h-258zM996 1658h258l-21 -188h-258z" />
<glyph unicode="&#xdd;" horiz-adv-x="1196" d="M146 0zM619 760l357 600h290l-548 -902l-67 -458h-286l67 464l-286 896h293zM853 1768l274 -48l-349 -248l-182 40z" />
<glyph unicode="&#xde;" horiz-adv-x="1195" d="M249 1360h287l-36 -252h194q109 0 195 -24.5t145.5 -70t91 -110t31.5 -145.5q0 -16 -1.5 -31.5t-3.5 -32.5q-14 -98 -60 -175.5t-120.5 -131.5t-175 -82.5t-223.5 -28.5h-194l-40 -276h-287zM468 890l-57 -396h173q113 0 185.5 48.5t86.5 151.5q3 22 3 42q0 83 -56 118.5 t-162 35.5h-173z" />
<glyph unicode="&#xdf;" horiz-adv-x="1295" d="M3 -192l170 1170q12 89 57 166.5t116 134.5t165 90t204 33q202 0 304 -65.5t102 -178.5q0 -19 -3 -40q-5 -35 -15 -62t-23.5 -48.5t-28.5 -39.5t-31 -34q-18 -21 -32.5 -39.5t-25.5 -38t-18.5 -40.5t-11.5 -46q-4 -27 2.5 -49t20 -41.5t33 -37t41.5 -36.5q24 -22 46 -45 t39.5 -51t28 -61t10.5 -75q0 -11 -1 -23t-3 -25q-14 -95 -64.5 -162t-125 -109t-165 -61t-184.5 -18q-63 0 -113.5 7.5t-78.5 16.5l58 216q24 -8 66 -15t102 -7q39 0 75.5 9.5t65.5 29t48.5 49t25.5 70.5q4 26 -2.5 48t-19 40.5t-29.5 34.5t-34 31q-27 23 -51 46.5t-43 49.5 t-30 57t-11 70q0 20 3 41q9 62 40 113t80 103q9 8 18.5 19.5t18 24t14.5 26t8 26.5q7 45 -23 73.5t-108 28.5q-43 0 -81.5 -16.5t-68.5 -44.5t-50 -65.5t-25 -79.5l-170 -1170h-292z" />
<glyph unicode="&#xe0;" horiz-adv-x="1092" d="M47 0zM661 114q-57 -61 -135.5 -97.5t-190.5 -36.5q-142 0 -215 81.5t-73 239.5q0 28 2.5 58.5t7.5 62.5q19 133 67 243t118 189t157.5 122.5t186.5 43.5q36 0 64 -5t51 -15t41.5 -23.5t36.5 -29.5l34 53h241l-145 -1000h-230zM345 426q-2 -16 -3 -30.5t-1 -28.5 q0 -45 11 -76.5t30 -52t45 -29.5t55 -9q51 0 98 23t83 63l70 485q-26 12 -54.5 21t-64.5 9q-49 0 -92.5 -26.5t-78.5 -75t-60.5 -118t-37.5 -155.5zM783 1202l-203 -52l-295 248l282 48z" />
<glyph unicode="&#xe1;" horiz-adv-x="1092" d="M47 0zM661 114q-57 -61 -135.5 -97.5t-190.5 -36.5q-142 0 -215 81.5t-73 239.5q0 28 2.5 58.5t7.5 62.5q19 133 67 243t118 189t157.5 122.5t186.5 43.5q36 0 64 -5t51 -15t41.5 -23.5t36.5 -29.5l34 53h241l-145 -1000h-230zM345 426q-2 -16 -3 -30.5t-1 -28.5 q0 -45 11 -76.5t30 -52t45 -29.5t55 -9q51 0 98 23t83 63l70 485q-26 12 -54.5 21t-64.5 9q-49 0 -92.5 -26.5t-78.5 -75t-60.5 -118t-37.5 -155.5zM780 1448l274 -48l-349 -248l-182 40z" />
<glyph unicode="&#xe2;" horiz-adv-x="1092" d="M47 0zM661 114q-57 -61 -135.5 -97.5t-190.5 -36.5q-142 0 -215 81.5t-73 239.5q0 28 2.5 58.5t7.5 62.5q19 133 67 243t118 189t157.5 122.5t186.5 43.5q36 0 64 -5t51 -15t41.5 -23.5t36.5 -29.5l34 53h241l-145 -1000h-230zM345 426q-2 -16 -3 -30.5t-1 -28.5 q0 -45 11 -76.5t30 -52t45 -29.5t55 -9q51 0 98 23t83 63l70 485q-26 12 -54.5 21t-64.5 9q-49 0 -92.5 -26.5t-78.5 -75t-60.5 -118t-37.5 -155.5zM550 1150h-247l317 232h168l249 -232h-248l-104 110z" />
<glyph unicode="&#xe3;" horiz-adv-x="1092" d="M47 0zM661 114q-57 -61 -135.5 -97.5t-190.5 -36.5q-142 0 -215 81.5t-73 239.5q0 28 2.5 58.5t7.5 62.5q19 133 67 243t118 189t157.5 122.5t186.5 43.5q36 0 64 -5t51 -15t41.5 -23.5t36.5 -29.5l34 53h241l-145 -1000h-230zM345 426q-2 -16 -3 -30.5t-1 -28.5 q0 -45 11 -76.5t30 -52t45 -29.5t55 -9q51 0 98 23t83 63l70 485q-26 12 -54.5 21t-64.5 9q-49 0 -92.5 -26.5t-78.5 -75t-60.5 -118t-37.5 -155.5zM800 1339q9 1 24 6t33 16t38.5 29t40.5 46l104 -106q-51 -72 -108 -112.5t-112 -47.5q-12 -2 -23 -3.5t-22 -1.5 q-54 0 -96 23t-78 52q-29 22 -55.5 34t-47.5 10q-9 -1 -22.5 -5t-31 -14t-37.5 -28t-43 -46l-106 100q49 72 107.5 112t113.5 50q19 3 37 3q56 0 100 -23.5t80 -50.5q27 -24 55 -34.5t49 -8.5z" />
<glyph unicode="&#xe4;" horiz-adv-x="1092" d="M47 0zM661 114q-57 -61 -135.5 -97.5t-190.5 -36.5q-142 0 -215 81.5t-73 239.5q0 28 2.5 58.5t7.5 62.5q19 133 67 243t118 189t157.5 122.5t186.5 43.5q36 0 64 -5t51 -15t41.5 -23.5t36.5 -29.5l34 53h241l-145 -1000h-230zM345 426q-2 -16 -3 -30.5t-1 -28.5 q0 -45 11 -76.5t30 -52t45 -29.5t55 -9q51 0 98 23t83 63l70 485q-26 12 -54.5 21t-64.5 9q-49 0 -92.5 -26.5t-78.5 -75t-60.5 -118t-37.5 -155.5zM305 1339h258l-21 -188h-258zM809 1339h258l-21 -188h-258z" />
<glyph unicode="&#xe5;" horiz-adv-x="1092" d="M47 0zM661 114q-57 -61 -135.5 -97.5t-190.5 -36.5q-142 0 -215 81.5t-73 239.5q0 28 2.5 58.5t7.5 62.5q19 133 67 243t118 189t157.5 122.5t186.5 43.5q36 0 64 -5t51 -15t41.5 -23.5t36.5 -29.5l34 53h241l-145 -1000h-230zM345 426q-2 -16 -3 -30.5t-1 -28.5 q0 -45 11 -76.5t30 -52t45 -29.5t55 -9q51 0 98 23t83 63l70 485q-26 12 -54.5 21t-64.5 9q-49 0 -92.5 -26.5t-78.5 -75t-60.5 -118t-37.5 -155.5zM665 1539q40 0 74.5 -15.5t58.5 -42t35.5 -61.5t5.5 -75q-6 -42 -27 -77.5t-52.5 -61.5t-70.5 -40.5t-80 -14.5t-75.5 15 t-58.5 41.5t-35 61.5t-5 76t27 76.5t52.5 61.5t70 41t80.5 15zM625 1267q35 0 61.5 23t31.5 55q5 34 -15 56t-55 22q-32 0 -60 -22.5t-33 -55.5q-2 -16 2.5 -30.5t14 -25t23.5 -16.5t30 -6z" />
<glyph unicode="&#xe6;" horiz-adv-x="1701" d="M687 581l6 41q2 15 3.5 28.5t1.5 25.5q0 33 -9.5 55t-28 35t-47.5 18.5t-68 5.5q-36 0 -77.5 -5.5t-81.5 -14.5t-76.5 -20.5t-61.5 -23.5l-21 203q38 18 84.5 34.5t96.5 29t102 20t100 7.5q101 0 183 -21.5t130 -74.5q137 96 323 96q76 0 142.5 -24t115 -68.5t76.5 -107 t28 -140.5q0 -15 -1.5 -30.5t-3.5 -32.5l-27 -182h-615q-4 -115 51.5 -176t169.5 -61q79 0 147.5 12.5t116.5 26.5l32 -178q-66 -38 -154 -58.5t-186 -20.5q-115 0 -206.5 30t-151.5 89q-33 -18 -77.5 -38t-100.5 -36.5t-122.5 -27.5t-141.5 -11q-70 0 -124.5 18t-91.5 51 t-56 78t-19 99q0 22 3 46q10 68 49 124t99.5 95.5t137.5 61.5t164 22h187zM443 190q60 0 109.5 8t81.5 17l28 192h-142q-45 0 -77.5 -9t-54 -25.5t-33 -39t-15.5 -49.5t2.5 -45t21 -29t35 -15.5t44.5 -4.5zM1204 814q-35 0 -66 -9.5t-58 -32.5t-49.5 -61t-38.5 -94h347 q2 13 3 25t1 23q0 41 -11 69.5t-29.5 46t-44 25.5t-54.5 8z" />
<glyph unicode="&#xe7;" horiz-adv-x="918" d="M62 0zM69 502q18 121 67 217t123.5 163t172.5 102.5t213 35.5q90 0 156 -15t110 -39l-81 -196q-33 13 -72 22.5t-98 9.5q-56 0 -105 -17.5t-87.5 -54t-65.5 -93t-38 -135.5q-6 -44 -6 -81q0 -118 57.5 -170.5t156.5 -52.5q68 0 115 10t90 26l12 -189 q-51 -28 -120.5 -46.5t-166.5 -18.5q-102 0 -183.5 30t-138.5 85.5t-87.5 134.5t-30.5 177q0 23 1.5 46.5t5.5 48.5zM574 38q18 -60 18 -118q0 -65 -23.5 -123.5t-72 -104t-123 -75.5t-175.5 -39l-41 139q42 3 81 16.5t69 36.5t48 55.5t18 74.5q0 52 -32 113z" />
<glyph unicode="&#xe8;" horiz-adv-x="1061" d="M54 0zM344 435q-4 -115 51.5 -176t169.5 -61q78 0 147 12.5t117 26.5l31 -178q-66 -38 -153.5 -58.5t-185.5 -20.5q-109 0 -195.5 27.5t-147 81t-92.5 130.5t-32 176q0 23 1.5 47t5.5 50q19 129 68 227.5t123 165.5t169.5 101t207.5 34q76 0 142 -24t115 -68.5t76.5 -107 t27.5 -140.5q0 -15 -1.5 -30.5t-3.5 -32.5l-26 -182h-615zM587 814q-35 0 -66 -9.5t-58 -32.5t-49.5 -61t-38.5 -94h346q2 13 3 25t1 23q0 40 -10.5 68.5t-29.5 46.5t-44 26t-54 8zM775 1202l-203 -52l-295 248l282 48z" />
<glyph unicode="&#xe9;" horiz-adv-x="1061" d="M54 0zM344 435q-4 -115 51.5 -176t169.5 -61q78 0 147 12.5t117 26.5l31 -178q-66 -38 -153.5 -58.5t-185.5 -20.5q-109 0 -195.5 27.5t-147 81t-92.5 130.5t-32 176q0 23 1.5 47t5.5 50q19 129 68 227.5t123 165.5t169.5 101t207.5 34q76 0 142 -24t115 -68.5t76.5 -107 t27.5 -140.5q0 -15 -1.5 -30.5t-3.5 -32.5l-26 -182h-615zM587 814q-35 0 -66 -9.5t-58 -32.5t-49.5 -61t-38.5 -94h346q2 13 3 25t1 23q0 40 -10.5 68.5t-29.5 46.5t-44 26t-54 8zM772 1448l274 -48l-349 -248l-182 40z" />
<glyph unicode="&#xea;" horiz-adv-x="1061" d="M54 0zM344 435q-4 -115 51.5 -176t169.5 -61q78 0 147 12.5t117 26.5l31 -178q-66 -38 -153.5 -58.5t-185.5 -20.5q-109 0 -195.5 27.5t-147 81t-92.5 130.5t-32 176q0 23 1.5 47t5.5 50q19 129 68 227.5t123 165.5t169.5 101t207.5 34q76 0 142 -24t115 -68.5t76.5 -107 t27.5 -140.5q0 -15 -1.5 -30.5t-3.5 -32.5l-26 -182h-615zM587 814q-35 0 -66 -9.5t-58 -32.5t-49.5 -61t-38.5 -94h346q2 13 3 25t1 23q0 40 -10.5 68.5t-29.5 46.5t-44 26t-54 8zM541 1150h-247l317 232h168l249 -232h-248l-104 110z" />
<glyph unicode="&#xeb;" horiz-adv-x="1061" d="M54 0zM344 435q-4 -115 51.5 -176t169.5 -61q78 0 147 12.5t117 26.5l31 -178q-66 -38 -153.5 -58.5t-185.5 -20.5q-109 0 -195.5 27.5t-147 81t-92.5 130.5t-32 176q0 23 1.5 47t5.5 50q19 129 68 227.5t123 165.5t169.5 101t207.5 34q76 0 142 -24t115 -68.5t76.5 -107 t27.5 -140.5q0 -15 -1.5 -30.5t-3.5 -32.5l-26 -182h-615zM587 814q-35 0 -66 -9.5t-58 -32.5t-49.5 -61t-38.5 -94h346q2 13 3 25t1 23q0 40 -10.5 68.5t-29.5 46.5t-44 26t-54 8zM297 1339h258l-21 -188h-258zM801 1339h258l-21 -188h-258z" />
<glyph unicode="&#xec;" horiz-adv-x="479" d="M0 0zM153 1000h287l-145 -1000h-287zM444 1197l-203 -52l-295 248l282 48z" />
<glyph unicode="&#xed;" horiz-adv-x="479" d="M8 0zM153 1000h287l-145 -1000h-287zM441 1443l274 -48l-349 -248l-182 40z" />
<glyph unicode="&#xee;" horiz-adv-x="479" d="M0 0zM153 1000h287l-145 -1000h-287zM211 1146h-247l317 232h168l249 -232h-248l-104 110z" />
<glyph unicode="&#xef;" horiz-adv-x="479" d="M0 0zM153 1000h287l-145 -1000h-287zM-34 1334h258l-21 -188h-258zM470 1334h258l-21 -188h-258z" />
<glyph unicode="&#xf0;" horiz-adv-x="1195" d="M488 1022l182 87q-43 27 -96.5 40t-116.5 13l76 218q125 0 228.5 -36t177.5 -105l181 87l52 -99l-158 -75q51 -75 77.5 -170t26.5 -210q0 -75 -12 -157q-21 -147 -72 -264t-128.5 -198.5t-179 -125t-223.5 -43.5q-110 0 -192.5 35t-137 93.5t-79.5 134t-20 155.5 q6 98 42 180t96 140.5t142 91t180 32.5q40 0 80.5 -7t77.5 -21.5t70 -37.5t59 -56q1 11 1 20.5v19.5q0 86 -17.5 151.5t-49.5 113.5l-216 -102zM513 202q103 0 175 78.5t108 248.5q-18 34 -42.5 56.5t-52.5 36t-58 19t-60 5.5q-50 0 -88.5 -18.5t-65.5 -50t-43 -73.5 t-23 -90q-3 -23 -3 -45q0 -35 9 -65.5t28 -53t48 -35.5t68 -13z" />
<glyph unicode="&#xf1;" horiz-adv-x="1188" d="M44 0zM189 1000h242l12 -104q77 59 158 91.5t171 32.5q66 0 120 -13t92.5 -44.5t60 -84.5t21.5 -133q0 -24 -1.5 -51t-6.5 -56l-93 -638h-286l92 638q2 17 3.5 31t1.5 27q0 60 -28 83t-86 23q-60 0 -116.5 -22t-107.5 -57l-105 -723h-289zM836 1339q9 1 24 6t33 16 t38.5 29t40.5 46l104 -106q-51 -72 -108 -112.5t-112 -47.5q-12 -2 -23 -3.5t-22 -1.5q-54 0 -96 23t-78 52q-29 22 -55.5 34t-47.5 10q-9 -1 -22.5 -5t-31 -14t-37.5 -28t-43 -46l-106 100q49 72 107.5 112t113.5 50q19 3 37 3q56 0 100 -23.5t80 -50.5q27 -24 55 -34.5 t49 -8.5z" />
<glyph unicode="&#xf2;" horiz-adv-x="1161" d="M55 0zM62 500q18 124 68.5 221t126.5 163.5t173.5 101t209.5 34.5q97 0 177 -29t137 -83.5t88 -133t31 -177.5q0 -23 -1.5 -47t-5.5 -50q-18 -125 -68.5 -222t-126.5 -163t-173 -100.5t-209 -34.5q-97 0 -177 28.5t-137 83t-88.5 133t-31.5 178.5q0 23 1.5 47t5.5 50z M350 500q-4 -26 -6 -50t-2 -45q0 -57 13 -96.5t36.5 -64t56 -35.5t72.5 -11q46 0 88 16t76 52t58.5 93.5t36.5 140.5q4 27 6 51t2 45q0 57 -13 96.5t-36.5 64t-56.5 35t-73 10.5q-46 0 -87.5 -16.5t-75.5 -52.5t-58.5 -93.5t-36.5 -139.5zM811 1200l-203 -52l-295 248 l282 48z" />
<glyph unicode="&#xf3;" horiz-adv-x="1161" d="M55 0zM62 500q18 124 68.5 221t126.5 163.5t173.5 101t209.5 34.5q97 0 177 -29t137 -83.5t88 -133t31 -177.5q0 -23 -1.5 -47t-5.5 -50q-18 -125 -68.5 -222t-126.5 -163t-173 -100.5t-209 -34.5q-97 0 -177 28.5t-137 83t-88.5 133t-31.5 178.5q0 23 1.5 47t5.5 50z M350 500q-4 -26 -6 -50t-2 -45q0 -57 13 -96.5t36.5 -64t56 -35.5t72.5 -11q46 0 88 16t76 52t58.5 93.5t36.5 140.5q4 27 6 51t2 45q0 57 -13 96.5t-36.5 64t-56.5 35t-73 10.5q-46 0 -87.5 -16.5t-75.5 -52.5t-58.5 -93.5t-36.5 -139.5zM808 1446l274 -48l-349 -248 l-182 40z" />
<glyph unicode="&#xf4;" horiz-adv-x="1161" d="M55 0zM62 500q18 124 68.5 221t126.5 163.5t173.5 101t209.5 34.5q97 0 177 -29t137 -83.5t88 -133t31 -177.5q0 -23 -1.5 -47t-5.5 -50q-18 -125 -68.5 -222t-126.5 -163t-173 -100.5t-209 -34.5q-97 0 -177 28.5t-137 83t-88.5 133t-31.5 178.5q0 23 1.5 47t5.5 50z M350 500q-4 -26 -6 -50t-2 -45q0 -57 13 -96.5t36.5 -64t56 -35.5t72.5 -11q46 0 88 16t76 52t58.5 93.5t36.5 140.5q4 27 6 51t2 45q0 57 -13 96.5t-36.5 64t-56.5 35t-73 10.5q-46 0 -87.5 -16.5t-75.5 -52.5t-58.5 -93.5t-36.5 -139.5zM578 1148h-247l317 232h168 l249 -232h-248l-104 110z" />
<glyph unicode="&#xf5;" horiz-adv-x="1161" d="M55 0zM62 500q18 124 68.5 221t126.5 163.5t173.5 101t209.5 34.5q97 0 177 -29t137 -83.5t88 -133t31 -177.5q0 -23 -1.5 -47t-5.5 -50q-18 -125 -68.5 -222t-126.5 -163t-173 -100.5t-209 -34.5q-97 0 -177 28.5t-137 83t-88.5 133t-31.5 178.5q0 23 1.5 47t5.5 50z M350 500q-4 -26 -6 -50t-2 -45q0 -57 13 -96.5t36.5 -64t56 -35.5t72.5 -11q46 0 88 16t76 52t58.5 93.5t36.5 140.5q4 27 6 51t2 45q0 57 -13 96.5t-36.5 64t-56.5 35t-73 10.5q-46 0 -87.5 -16.5t-75.5 -52.5t-58.5 -93.5t-36.5 -139.5zM827 1337q9 1 24 6t33 16t38.5 29 t40.5 46l104 -106q-51 -72 -108 -112.5t-112 -47.5q-12 -2 -23 -3.5t-22 -1.5q-54 0 -96 23t-78 52q-29 22 -55.5 34t-47.5 10q-9 -1 -22.5 -5t-31 -14t-37.5 -28t-43 -46l-106 100q49 72 107.5 112t113.5 50q19 3 37 3q56 0 100 -23.5t80 -50.5q27 -24 55 -34.5t49 -8.5z " />
<glyph unicode="&#xf6;" horiz-adv-x="1161" d="M55 0zM62 500q18 124 68.5 221t126.5 163.5t173.5 101t209.5 34.5q97 0 177 -29t137 -83.5t88 -133t31 -177.5q0 -23 -1.5 -47t-5.5 -50q-18 -125 -68.5 -222t-126.5 -163t-173 -100.5t-209 -34.5q-97 0 -177 28.5t-137 83t-88.5 133t-31.5 178.5q0 23 1.5 47t5.5 50z M350 500q-4 -26 -6 -50t-2 -45q0 -57 13 -96.5t36.5 -64t56 -35.5t72.5 -11q46 0 88 16t76 52t58.5 93.5t36.5 140.5q4 27 6 51t2 45q0 57 -13 96.5t-36.5 64t-56.5 35t-73 10.5q-46 0 -87.5 -16.5t-75.5 -52.5t-58.5 -93.5t-36.5 -139.5zM333 1337h258l-21 -188h-258z M837 1337h258l-21 -188h-258z" />
<glyph unicode="&#xf7;" horiz-adv-x="1079" d="M84 486l30 206h876l-30 -206h-876zM469 1002h249l-30 -202h-248zM379 378h248l-29 -202h-249z" />
<glyph unicode="&#xf8;" horiz-adv-x="1263" d="M129 500q18 124 69 221t126.5 163.5t173 101t209.5 34.5q82 0 154 -20.5t126 -60.5l63 61h178l-155 -152q33 -50 50.5 -112.5t17.5 -137.5q0 -23 -1.5 -47.5t-5.5 -50.5q-18 -125 -69 -222t-126.5 -163t-173 -100.5t-209.5 -34.5q-84 0 -157.5 21t-127.5 63l-65 -64h-177 l158 154q-65 98 -65 245q0 24 1.5 49.5t5.5 51.5zM846 500q4 25 5.5 46.5t1.5 41.5q0 11 -0.5 22t-1.5 22l-394 -385q24 -26 57 -37.5t74 -11.5q46 0 88 16t75.5 52t58 93.5t36.5 140.5zM417 500q-4 -25 -5.5 -46t-1.5 -41q0 -11 0.5 -20.5t1.5 -18.5l389 383q-23 23 -55 34 t-71 11q-46 0 -87.5 -16.5t-75.5 -52.5t-58.5 -93.5t-36.5 -139.5z" />
<glyph unicode="&#xf9;" horiz-adv-x="1188" d="M90 0zM965 0h-240l-10 108q-76 -60 -158.5 -94t-172.5 -34q-65 0 -119 13.5t-93 45.5t-60.5 86.5t-21.5 137.5q0 52 9 115l90 622h289l-90 -622q-6 -38 -6 -67q0 -64 28 -88.5t85 -24.5q59 0 116 22t108 58l105 722h286zM817 1182l-203 -52l-295 248l282 48z" />
<glyph unicode="&#xfa;" horiz-adv-x="1188" d="M90 0zM965 0h-240l-10 108q-76 -60 -158.5 -94t-172.5 -34q-65 0 -119 13.5t-93 45.5t-60.5 86.5t-21.5 137.5q0 52 9 115l90 622h289l-90 -622q-6 -38 -6 -67q0 -64 28 -88.5t85 -24.5q59 0 116 22t108 58l105 722h286zM814 1428l274 -48l-349 -248l-182 40z" />
<glyph unicode="&#xfb;" horiz-adv-x="1188" d="M90 0zM965 0h-240l-10 108q-76 -60 -158.5 -94t-172.5 -34q-65 0 -119 13.5t-93 45.5t-60.5 86.5t-21.5 137.5q0 52 9 115l90 622h289l-90 -622q-6 -38 -6 -67q0 -64 28 -88.5t85 -24.5q59 0 116 22t108 58l105 722h286zM584 1131h-247l317 232h168l249 -232h-248 l-104 110z" />
<glyph unicode="&#xfc;" horiz-adv-x="1188" d="M90 0zM965 0h-240l-10 108q-76 -60 -158.5 -94t-172.5 -34q-65 0 -119 13.5t-93 45.5t-60.5 86.5t-21.5 137.5q0 52 9 115l90 622h289l-90 -622q-6 -38 -6 -67q0 -64 28 -88.5t85 -24.5q59 0 116 22t108 58l105 722h286zM339 1319h258l-21 -188h-258zM843 1319h258 l-21 -188h-258z" />
<glyph unicode="&#xfd;" horiz-adv-x="1040" d="M6 0zM554 -50q-44 -106 -91.5 -175.5t-97 -111t-101.5 -58.5t-105 -17q-42 0 -81.5 5t-71.5 13l50 208q16 0 23 -0.5t13 -1t15.5 -1t30.5 -0.5q22 0 41 6t36.5 21.5t35 42.5t36.5 68l-201 1051h292l92 -704l306 704h292zM741 1428l274 -48l-349 -248l-182 40z" />
<glyph unicode="&#xfe;" horiz-adv-x="1148" d="M221 1400h289l-67 -468q28 21 58 37t64.5 27.5t75 17.5t90.5 6q76 0 138 -28.5t105 -81t66.5 -127t23.5 -167.5q0 -56 -9 -116q-18 -121 -60 -217.5t-104 -163.5t-141 -103t-170 -36q-47 0 -85.5 6t-70 17t-58 27t-49.5 37l-68 -467h-289zM759 500q9 60 9 107 q0 97 -39.5 145t-130.5 48q-49 0 -96 -17.5t-88 -45.5l-69 -476q32 -28 73.5 -45.5t92.5 -17.5q108 0 167.5 77.5t80.5 224.5z" />
<glyph unicode="&#xff;" horiz-adv-x="1040" d="M6 0zM554 -50q-44 -106 -91.5 -175.5t-97 -111t-101.5 -58.5t-105 -17q-42 0 -81.5 5t-71.5 13l50 208q16 0 23 -0.5t13 -1t15.5 -1t30.5 -0.5q22 0 41 6t36.5 21.5t35 42.5t36.5 68l-201 1051h292l92 -704l306 704h292zM266 1319h258l-21 -188h-258zM770 1319h258 l-21 -188h-258z" />
<glyph unicode="&#x131;" horiz-adv-x="479" d="M153 1000h287l-145 -1000h-287z" />
<glyph unicode="&#x152;" horiz-adv-x="1763" d="M774 0q-19 -2 -37.5 -3t-38.5 -1q-140 0 -251.5 38.5t-189 110.5t-119 175t-41.5 232q0 31 2.5 63t7.5 65q23 162 89 288.5t167.5 214t236.5 133.5t296 46h30.5t32.5 -2h814l-32 -220h-554l-50 -346h491l-32 -220h-491l-51 -354h553l-31 -220h-802zM729 214q9 0 18 0.5 t19 1.5l134 926q-8 1 -17 1.5t-19 0.5q-93 0 -172.5 -32.5t-140.5 -92.5t-101.5 -146t-55.5 -193q-5 -29 -6.5 -56.5t-1.5 -53.5q0 -171 87.5 -263.5t255.5 -92.5z" />
<glyph unicode="&#x153;" horiz-adv-x="1834" d="M81 500q18 124 69 221t126.5 163.5t173 101t209.5 34.5q106 0 193.5 -34.5t144.5 -99.5q74 66 167.5 100t204.5 34q76 0 142.5 -24t115 -68.5t76.5 -107t28 -140.5q0 -15 -1.5 -30.5t-3.5 -32.5l-27 -182h-615q-4 -115 51.5 -176t169.5 -61q78 0 147 12.5t117 26.5 l31 -178q-66 -38 -153.5 -58.5t-185.5 -20.5q-124 0 -219 34.5t-155 100.5q-75 -66 -171.5 -100.5t-207.5 -34.5q-97 0 -177 28.5t-137 83t-88.5 133t-31.5 178.5q0 23 1.5 47t5.5 50zM369 500q-4 -26 -6 -50t-2 -45q0 -57 13 -96.5t36.5 -64t56.5 -35.5t73 -11q46 0 88 16 t75.5 52t58 93.5t36.5 140.5q4 27 6 51t2 45q0 57 -13 96.5t-36.5 64t-56.5 35t-73 10.5q-46 0 -87.5 -16.5t-75.5 -52.5t-58.5 -93.5t-36.5 -139.5zM1327 814q-35 0 -66 -9.5t-58 -32.5t-49.5 -61t-38.5 -94h347q2 13 3 25t1 23q0 41 -11 69.5t-29.5 46t-44 25.5t-54.5 8z " />
<glyph unicode="&#x178;" horiz-adv-x="1196" d="M146 0zM619 760l357 600h290l-548 -902l-67 -458h-286l67 464l-286 896h293zM378 1658h258l-21 -188h-258zM882 1658h258l-21 -188h-258z" />
<glyph unicode="&#x2c6;" horiz-adv-x="894" d="M414 1148h-247l317 232h168l249 -232h-248l-104 110z" />
<glyph unicode="&#x2da;" horiz-adv-x="597" d="M444 1616q40 0 74.5 -15.5t58.5 -42t35.5 -61.5t5.5 -75q-6 -42 -27 -77.5t-52.5 -61.5t-70.5 -40.5t-80 -14.5t-75.5 15t-58.5 41.5t-35 61.5t-5 76t27 76.5t52.5 61.5t70 41t80.5 15zM404 1344q35 0 61.5 23t31.5 55q5 34 -15 56t-55 22q-32 0 -60 -22.5t-33 -55.5 q-2 -16 2.5 -30.5t14 -25t23.5 -16.5t30 -6z" />
<glyph unicode="&#x2dc;" horiz-adv-x="970" d="M719 1315q9 1 24 6t33 16t38.5 29t40.5 46l104 -106q-51 -72 -108 -112.5t-112 -47.5q-12 -2 -23 -3.5t-22 -1.5q-54 0 -96 23t-78 52q-29 22 -55.5 34t-47.5 10q-9 -1 -22.5 -5t-31 -14t-37.5 -28t-43 -46l-106 100q49 72 107.5 112t113.5 50q19 3 37 3q56 0 100 -23.5 t80 -50.5q27 -24 55 -34.5t49 -8.5z" />
<glyph unicode="&#x2000;" horiz-adv-x="930" />
<glyph unicode="&#x2001;" horiz-adv-x="1860" />
<glyph unicode="&#x2002;" horiz-adv-x="930" />
<glyph unicode="&#x2003;" horiz-adv-x="1860" />
<glyph unicode="&#x2004;" horiz-adv-x="620" />
<glyph unicode="&#x2005;" horiz-adv-x="465" />
<glyph unicode="&#x2006;" horiz-adv-x="310" />
<glyph unicode="&#x2007;" horiz-adv-x="310" />
<glyph unicode="&#x2008;" horiz-adv-x="232" />
<glyph unicode="&#x2009;" horiz-adv-x="372" />
<glyph unicode="&#x200a;" horiz-adv-x="103" />
<glyph unicode="&#x2010;" horiz-adv-x="733" d="M91 570l32 226h541l-33 -226h-540z" />
<glyph unicode="&#x2011;" horiz-adv-x="733" d="M91 570l32 226h541l-33 -226h-540z" />
<glyph unicode="&#x2012;" horiz-adv-x="733" d="M91 570l32 226h541l-33 -226h-540z" />
<glyph unicode="&#x2013;" horiz-adv-x="1088" d="M63 538l28 194h938l-28 -194h-938z" />
<glyph unicode="&#x2014;" horiz-adv-x="1725" d="M84 538l28 194h1523l-28 -194h-1523z" />
<glyph unicode="&#x2018;" horiz-adv-x="556" d="M423 910h-275l240 492l194 -20z" />
<glyph unicode="&#x2019;" horiz-adv-x="546" d="M315 1402h275l-239 -492l-194 20z" />
<glyph unicode="&#x201a;" horiz-adv-x="558" d="M0 0zM129 212h271l-236 -516l-182 32z" />
<glyph unicode="&#x201c;" horiz-adv-x="920" d="M295 910zM570.02 910.086h-274.983l238.985 491.97l193.988 -19.999zM936.02 910.086h-274.983l238.985 491.97l193.988 -19.999z" />
<glyph unicode="&#x201d;" horiz-adv-x="920" d="M156 910zM314 1402h275l-239 -492l-194 20zM675 1402h275l-239 -492l-194 20z" />
<glyph unicode="&#x201e;" horiz-adv-x="908" d="M0 0zM129 212h271l-236 -516l-182 32zM468 212h271l-236 -516l-182 32z" />
<glyph unicode="&#x2022;" horiz-adv-x="760" d="M420 900q51 0 94 -17.5t74.5 -48.5t49.5 -73t18 -90q0 -19 -3 -37q-8 -56 -36 -104.5t-69.5 -83.5t-94 -55t-110.5 -20q-50 0 -92.5 17.5t-73.5 47.5t-48.5 71.5t-17.5 89.5q0 17 3 37q8 56 35.5 104.5t68.5 84.5t93 56.5t109 20.5z" />
<glyph unicode="&#x2026;" horiz-adv-x="1612" d="M36 0zM72 244h272l-35 -244h-273zM608 244h272l-35 -244h-273zM1157 244h272l-35 -244h-273z" />
<glyph unicode="&#x202f;" horiz-adv-x="372" />
<glyph unicode="&#x2039;" horiz-adv-x="671" d="M517 152l-145 -110l-302 386l12 84l417 406l113 -110l-268 -336z" />
<glyph unicode="&#x203a;" horiz-adv-x="671" d="M117 808l145 110l301 -386l-12 -84l-416 -406l-113 110l266 336z" />
<glyph unicode="&#x2044;" horiz-adv-x="1100" d="M997 1360h184l-1076 -1360h-184z" />
<glyph unicode="&#x205f;" horiz-adv-x="465" />
<glyph unicode="&#x2074;" horiz-adv-x="695" d="M588 792l-17 -123h-158l18 123h-378l14 100l429 475h176l-66 -453h82l-18 -122h-82zM449 914l40 281l-251 -281h211z" />
<glyph unicode="&#x20ac;" d="M97 884h194q38 115 97 206.5t135.5 156t169.5 99t199 34.5q96 0 162.5 -16t112.5 -37l-78 -202q-42 17 -97.5 27t-119.5 10q-91 0 -167 -67t-123 -211h456l-22 -146h-469q-2 -14 -4.5 -28t-4.5 -28q-4 -25 -6 -47t-4 -43h467l-21 -146h-448q11 -129 65.5 -188.5 t144.5 -59.5q74 0 142 16.5t121 36.5l14 -203q-59 -29 -142.5 -48.5t-200.5 -19.5q-94 0 -171 32.5t-133.5 93t-90 146.5t-41.5 194h-201l21 146h180q2 22 4.5 44.5t5.5 45.5q2 15 4 28.5t5 27.5h-177z" />
<glyph unicode="&#x2122;" horiz-adv-x="1346" d="M1028 1160l150 200h159l-72 -494h-121l50 341l-146 -199h-86l-89 203l-50 -345h-136l72 494h179zM481 1248l-56 -382h-133l55 382h-178l16 112h489l-17 -112h-176z" />
<glyph unicode="&#xe000;" horiz-adv-x="1000" d="M0 1000h1000v-1000h-1000v1000z" />
<glyph horiz-adv-x="1301" d="M0 0z" />
</font>
</defs>
</svg>
